<svg xmlns="http://www.w3.org/2000/svg" viewBox="0 0 30.19 87"><defs><style>.cls-1,.cls-3{fill:none;stroke:#b50000;stroke-miterlimit:10;stroke-width:3px;}.cls-2{fill:#b50000;}.cls-3{stroke-dasharray:1 10;}</style></defs><title>arrow</title><g id="Layer_2" data-name="Layer 2"><g id="sans"><g id="arrow"><line class="cls-1" x1="15.09" y1="55.01" x2="15.09" y2="83.4"/><path class="cls-2" d="M.69,62.89a1.52,1.52,0,0,1,2.08.47L15.09,82.71,27.42,63.36A1.5,1.5,0,1,1,30,65L16.36,86.31a1.51,1.51,0,0,1-1.27.69,1.49,1.49,0,0,1-1.26-.69L.23,65A1.58,1.58,0,0,1,0,64.16,1.53,1.53,0,0,1,.69,62.89Z"/><line class="cls-1" x1="15.09" y1="55.01" x2="15.09" y2="54.51"/><line class="cls-3" x1="15.09" y1="44.51" x2="15.09" y2="5.5"/><line class="cls-1" x1="15.09" y1="0.5" x2="15.09"/></g></g></g></svg>