<svg xmlns="http://www.w3.org/2000/svg" xmlns:xlink="http://www.w3.org/1999/xlink" viewBox="0 0 286.47 80.41"><defs><style>.cls-1{fill:none;}.cls-2{clip-path:url(#clip-path);}.cls-3{fill:#8d1b15;}.cls-4,.cls-5{fill:#575756;}.cls-5{fill-rule:evenodd;}</style><clipPath id="clip-path" transform="translate(-19.73 -8.52)"><polygon class="cls-1" points="1 0 324.92 0 323.92 133.45 0 133.45 1 0"/></clipPath></defs><title>bibliotheca-hertziana</title><g id="Layer_2" data-name="Layer 2"><g id="sans"><g class="cls-2"><path class="cls-3" d="M93.56,38.84h2.71c3.44,0,4.43-1.09,4.43-4.67S99.43,29.23,96,29.23H93.56Zm2.31-10.39c3.46,0,4.4-1.12,4.4-4.49S99,19.9,95.74,19.9H93.56v8.55ZM88.25,38.84H90.5V19.9H88.25v-.78h7.87c4.81,0,7.3,1.72,7.3,4.75,0,2.52-1.78,4.3-5,4.83v.13c3.62.59,5.71,2.68,5.71,5.18,0,3.49-2.81,5.62-8.12,5.62H88.25Z" transform="translate(-19.73 -8.52)"/><polygon class="cls-3" points="88.09 30.32 90.68 30.32 90.68 11.38 88.09 11.38 88.09 10.6 96.45 10.6 96.45 11.38 93.8 11.38 93.8 30.32 96.45 30.32 96.45 31.1 88.09 31.1 88.09 30.32"/><path class="cls-3" d="M126.88,38.84h2.72c3.43,0,4.43-1.09,4.43-4.67s-1.28-4.94-4.72-4.94h-2.43Zm2.31-10.39c3.46,0,4.4-1.12,4.4-4.49s-1.28-4.06-4.53-4.06h-2.18v8.55Zm-7.61,10.39h2.24V19.9h-2.24v-.78h7.86c4.81,0,7.3,1.72,7.3,4.75,0,2.52-1.78,4.3-5,4.83v.13c3.62.59,5.71,2.68,5.71,5.18,0,3.49-2.81,5.62-8.12,5.62h-7.73Z" transform="translate(-19.73 -8.52)"/><path class="cls-3" d="M140.51,38.84h2.56V19.9h-2.46v-.78H149v.78h-2.8V38.84h4.21c3.12,0,4.34-1.18,5.24-5h.59l-.34,5.78H140.51Z" transform="translate(-19.73 -8.52)"/><polygon class="cls-3" points="140.98 30.32 143.57 30.32 143.57 11.38 140.98 11.38 140.98 10.6 149.34 10.6 149.34 11.38 146.69 11.38 146.69 30.32 149.34 30.32 149.34 31.1 140.98 31.1 140.98 30.32"/><path class="cls-3" d="M178.11,30.7c0,5.81,1.75,8.65,5.37,8.65s5.34-2.88,5.34-8.71c0-7.65-1-11.17-5.34-11.17s-5.37,3.58-5.37,11.23M177,36.91a12.52,12.52,0,0,1-2.41-7.61A11.16,11.16,0,0,1,177,22.09a8,8,0,0,1,6.49-3.34,7.75,7.75,0,0,1,6.15,3,11.69,11.69,0,0,1,2.71,7.74,12.12,12.12,0,0,1-2.56,7.65,7.49,7.49,0,0,1-6.3,3A7.58,7.58,0,0,1,177,36.91" transform="translate(-19.73 -8.52)"/><path class="cls-3" d="M202.82,38.84h2.59V19.9c-.37,0-.68,0-1,0-3,0-4.12,1.37-4.9,5.25h-.68l.28-6H214.9l.22,5.87h-.75c-.47-3.68-1.84-5.12-5-5.12a8,8,0,0,0-.85,0V38.84H211v.79h-8.21Z" transform="translate(-19.73 -8.52)"/><polygon class="cls-3" points="200.22 30.32 202.54 30.32 202.54 11.38 200.22 11.38 200.22 10.6 207.97 10.6 207.97 11.38 205.66 11.38 205.66 20.06 214.49 20.06 214.49 11.38 212.18 11.38 212.18 10.6 219.91 10.6 219.91 11.38 217.61 11.38 217.61 30.32 219.91 30.32 219.91 31.1 212.18 31.1 212.18 30.32 214.49 30.32 214.49 20.93 205.66 20.93 205.66 30.32 207.97 30.32 207.97 31.1 200.22 31.1 200.22 30.32"/><path class="cls-3" d="M245.16,38.84h2.31V19.9h-2.31v-.78h15.23v4.93h-.65c-.5-3.34-1.94-4.15-5.31-4.15h-3.84v8.68h.63c2.62,0,3.62-.81,3.8-3.25h.66V33H255c-.16-2.78-1.28-3.68-4.27-3.68h-.16v9.48h4.34c3.43,0,4.74-1.24,5.52-5.05h.69l-.31,5.84H245.16Z" transform="translate(-19.73 -8.52)"/><path class="cls-3" d="M283,34.13v5.5h-.65l-1-1a7.7,7.7,0,0,1-5,1.49c-5.06,0-8.71-4.24-8.71-10.42a12.11,12.11,0,0,1,2.46-7.61,8.57,8.57,0,0,1,6.62-3.34,7.12,7.12,0,0,1,4.53,1.59l1-1h.46v5.18h-.65c-.87-3.37-2.77-5.12-5.49-5.12-4,0-5.43,3.56-5.43,10.87,0,3,.18,5.21,1.09,6.71a4.67,4.67,0,0,0,4,2.27c3,0,5.06-1.75,6.06-5.15Z" transform="translate(-19.73 -8.52)"/><path class="cls-3" d="M298.58,31.35,296,23.12l-2.78,8.23Zm-11.27,7.49h2.43l7-20.25h.79L304,38.84h2.15v.79h-7.8v-.79h2.53l-2.06-6.58h-5.93l-2.18,6.58h2.59v.79h-6Z" transform="translate(-19.73 -8.52)"/><polygon class="cls-3" points="68.53 56.99 70.84 56.99 70.84 38.04 68.53 38.04 68.53 37.26 76.27 37.26 76.27 38.04 73.96 38.04 73.96 46.72 82.79 46.72 82.79 38.04 80.48 38.04 80.48 37.26 88.22 37.26 88.22 38.04 85.91 38.04 85.91 56.99 88.22 56.99 88.22 57.77 80.48 57.77 80.48 56.99 82.79 56.99 82.79 47.59 73.96 47.59 73.96 56.99 76.27 56.99 76.27 57.77 68.53 57.77 68.53 56.99"/><path class="cls-3" d="M113,65.51h2.31V46.57H113v-.78h15.23v4.93h-.66c-.5-3.34-1.93-4.15-5.3-4.15h-3.84v8.67h.62c2.62,0,3.62-.81,3.81-3.24h.66v7.71h-.66c-.16-2.78-1.28-3.69-4.28-3.69h-.15v9.49h4.34c3.43,0,4.74-1.25,5.52-5.06H129l-.32,5.84H113Z" transform="translate(-19.73 -8.52)"/><path class="cls-3" d="M140.7,54.75c3.75,0,5.31-.69,5.31-4.25,0-3.31-1.28-3.93-4.43-3.93H138.9v8.18Zm-4.83,10.76V46.57h-2.31v-.78h8.68c4.68,0,7.14,1.71,7.14,4.52s-2.25,4.68-6.24,4.87v.25c3.06.53,5,2.22,5.31,4.43.31,2,0,3.75.43,4.87a1.46,1.46,0,0,0,1.56,1.06,3.61,3.61,0,0,0,1.59-.41v.79a7.46,7.46,0,0,1-2.84.65c-2.74,0-3.84-2.12-4-6.3-.06-1.44-.06-2.56-1-3.56a4.68,4.68,0,0,0-3.5-1.4h-1.8v10h2.37v.78h-7.84v-.78Z" transform="translate(-19.73 -8.52)"/><path class="cls-3" d="M159.08,65.51h2.59V46.57a9,9,0,0,0-1,0c-3,0-4.12,1.38-4.9,5.25h-.69l.29-6h15.82l.22,5.86h-.75c-.47-3.68-1.84-5.12-5-5.12a5.91,5.91,0,0,0-.84,0V65.51h2.53v.78h-8.21Z" transform="translate(-19.73 -8.52)"/><path class="cls-3" d="M175.37,65.2l11.95-18.63H181.2c-2.27,0-3.37,1.24-4,4.15h-.84l.34-4.93h14v1l-12,18.76h5.52c3.71,0,5.12-1.28,5.71-5.09h.81l-.37,5.87h-15Z" transform="translate(-19.73 -8.52)"/><polygon class="cls-3" points="176.33 56.99 178.92 56.99 178.92 38.04 176.33 38.04 176.33 37.26 184.69 37.26 184.69 38.04 182.04 38.04 182.04 56.99 184.69 56.99 184.69 57.77 176.33 57.77 176.33 56.99"/><path class="cls-3" d="M220.05,58l-2.59-8.24L214.68,58Zm-11.27,7.49h2.44l7-20.25H219l6.52,20.25h2.15v.78h-7.8v-.78h2.53l-2.06-6.58H214.4l-2.18,6.58h2.59v.78h-6Z" transform="translate(-19.73 -8.52)"/><polygon class="cls-3" points="210.62 56.99 212.93 56.99 212.93 38.04 210.65 38.04 210.65 37.26 216.61 37.26 225.35 51.93 225.35 38.04 223.01 38.04 223.01 37.26 228.72 37.26 228.72 38.04 226.35 38.04 226.35 58.27 225.53 58.27 213.9 38.42 213.9 56.99 216.2 56.99 216.2 57.77 210.62 57.77 210.62 56.99"/><path class="cls-3" d="M260.36,49.78,263,58h-5.37Zm.75-4.52-7,20.25h-2.44v.78h6v-.78h-2.59l2.18-6.59h5.93l2.06,6.59h-2.53v.78h7.81v-.78h-2.16l-6.52-20.25Z" transform="translate(-19.73 -8.52)"/><polygon class="cls-4" points="72.38 64.98 71.2 68.84 70.1 64.98 68.53 64.98 68.53 65.18 69.1 65.18 69.1 70 68.53 70 68.53 70.2 69.93 70.2 69.93 70 69.35 70 69.35 65.25 69.41 65.25 70.81 70.2 71.01 70.2 72.52 65.25 72.55 65.25 72.55 70 71.97 70 71.97 70.2 73.91 70.2 73.91 70 73.3 70 73.3 65.18 73.91 65.18 73.91 64.98 72.38 64.98"/><path class="cls-4" d="M97.35,74.52l.65,2.1H96.64Zm.19-1.15-1.78,5.16h-.62v.19h1.53v-.19H96l.56-1.68h1.51l.52,1.68H98v.19h2v-.19H99.4l-1.67-5.16Z" transform="translate(-19.73 -8.52)"/><polygon class="cls-4" points="84.4 64.98 84.4 65.18 85.04 65.18 83.91 67.01 82.82 65.18 83.38 65.18 83.38 64.98 81.37 64.98 81.37 65.18 81.92 65.18 83.43 67.71 82 70 81.33 70 81.33 70.2 82.95 70.2 82.95 70 82.28 70 83.55 67.92 84.8 70 84.17 70 84.17 70.2 86.22 70.2 86.22 70 85.7 70 84.03 67.22 85.3 65.18 85.96 65.18 85.96 64.98 84.4 64.98"/><rect class="cls-4" x="87.82" y="68.4" width="1.93" height="0.55"/><path class="cls-4" d="M112.79,76.16c1.07,0,1.42-.37,1.42-1.29s-.38-1.16-1.41-1.16h-.36v2.45Zm-1.7,2.37h.59V73.71h-.59v-.2h1.81c1.43,0,2.13.43,2.13,1.35s-.77,1.51-2.27,1.51h-.32v2.16h.62v.19h-2Z" transform="translate(-19.73 -8.52)"/><path class="cls-4" d="M116.47,78.53h.65V73.71h-.63v-.2h2.14v.2h-.71v4.82H119c.79,0,1.1-.31,1.33-1.27h.15l-.08,1.46h-3.92Z" transform="translate(-19.73 -8.52)"/><path class="cls-4" d="M124,74.52l.65,2.1h-1.36Zm.19-1.15-1.78,5.16h-.62v.19h1.53v-.19h-.66l.56-1.68h1.51l.52,1.68h-.64v.19h2v-.19H126l-1.67-5.16Z" transform="translate(-19.73 -8.52)"/><polygon class="cls-4" points="111.49 64.98 111.49 65.18 112.08 65.18 112.08 68.72 109.86 64.98 108.35 64.98 108.35 65.18 108.92 65.18 108.92 70 108.34 70 108.34 70.2 109.76 70.2 109.76 70 109.17 70 109.17 65.28 112.13 70.33 112.34 70.33 112.34 65.18 112.94 65.18 112.94 64.98 111.49 64.98"/><path class="cls-4" d="M138.88,77.33v1.39h-.16l-.25-.25a2,2,0,0,1-1.26.38A2.36,2.36,0,0,1,135,76.2a3.11,3.11,0,0,1,.63-1.94,2.19,2.19,0,0,1,1.68-.85,1.78,1.78,0,0,1,1.15.41l.27-.25h.12v1.32h-.17c-.22-.86-.71-1.3-1.4-1.3-1,0-1.38.9-1.38,2.76a3.43,3.43,0,0,0,.28,1.71,1.19,1.19,0,0,0,1,.58,1.56,1.56,0,0,0,1.54-1.31Z" transform="translate(-19.73 -8.52)"/><path class="cls-4" d="M140.84,73.51v.2h.59v4.82h-.59v.2h2v-.2h-.59V73.71h.59v-.2Zm2.89,0v.2h.67l-2.09,2.2V76l2,2.54h-.63v.2h2v-.21h-.43l-2.3-2.88,1.82-1.93h.59v-.2Z" transform="translate(-19.73 -8.52)"/><rect class="cls-4" x="127.03" y="68.4" width="1.93" height="0.55"/><polygon class="cls-4" points="130.65 64.98 130.65 65.18 131.31 65.18 131.31 70 130.65 70 130.65 70.2 132.78 70.2 132.78 70 132.11 70 132.11 65.18 132.78 65.18 132.78 64.98 130.65 64.98"/><polygon class="cls-4" points="138.09 64.98 138.09 65.18 138.68 65.18 138.68 68.72 136.46 64.98 134.94 64.98 134.94 65.18 135.52 65.18 135.52 70 134.93 70 134.93 70.2 136.35 70.2 136.35 70 135.77 70 135.77 65.28 138.73 70.33 138.93 70.33 138.93 65.18 139.54 65.18 139.54 64.98 138.09 64.98"/><path class="cls-4" d="M161,78.75V77.38h.16a1.61,1.61,0,0,0,1.49,1.25A1.26,1.26,0,0,0,164,77.41c0-.63-.45-.74-1.31-1-1.08-.34-1.66-.65-1.66-1.57a1.42,1.42,0,0,1,1.53-1.45,2,2,0,0,1,1,.31.13.13,0,0,0,.07,0l.15-.17H164v1.19h-.15a1.4,1.4,0,0,0-1.37-1.12,1,1,0,0,0-1.06.93c0,.45.32.69,1,.88a4.18,4.18,0,0,1,1.43.52,1.37,1.37,0,0,1,.53,1.16,1.65,1.65,0,0,1-1.77,1.77,2,2,0,0,1-1.14-.36l-.06,0-.24.25Z" transform="translate(-19.73 -8.52)"/><path class="cls-4" d="M167.15,78.53h.66V73.71h-.26c-.77,0-1.05.35-1.25,1.33h-.18l.07-1.52h4l.06,1.49h-.19c-.12-.94-.47-1.3-1.28-1.3h-.22v4.82h.65v.19h-2.09Z" transform="translate(-19.73 -8.52)"/><polygon class="cls-4" points="152.01 64.98 152.01 65.18 152.67 65.18 152.67 70 152.01 70 152.01 70.2 154.14 70.2 154.14 70 153.47 70 153.47 65.18 154.14 65.18 154.14 64.98 152.01 64.98"/><path class="cls-4" d="M176.65,78.53h.66V73.71h-.26c-.76,0-1.05.35-1.25,1.33h-.17l.07-1.52h4l.05,1.49h-.19c-.12-.94-.47-1.3-1.28-1.3h-.21v4.82h.64v.19h-2.09Z" transform="translate(-19.73 -8.52)"/><path class="cls-4" d="M182.38,73.71h-.61v-.2h2v.2h-.6v3.65c0,.81.39,1.24,1.1,1.24s1.28-.53,1.28-1.53V73.71h-.59v-.2h1.43v.2h-.6v3.38A1.54,1.54,0,0,1,184,78.86a1.44,1.44,0,0,1-1.64-1.45Z" transform="translate(-19.73 -8.52)"/><path class="cls-4" d="M188.93,78.53h.66V73.71h-.27c-.76,0-1,.35-1.24,1.33h-.18l.07-1.52h4l.05,1.49h-.19c-.11-.94-.46-1.3-1.27-1.3h-.22v4.82H191v.19h-2.08Z" transform="translate(-19.73 -8.52)"/><path class="cls-4" d="M196.87,78.53h.58V73.71h-.58v-.2h3.88V74.9h-.17c-.08-1-.45-1.19-1.36-1.19h-1V76h.07c.68,0,1-.22,1-.82h.17v1.94h-.17c0-.64-.32-.91-.91-.91h-.16v2.36h.62v.19h-2Z" transform="translate(-19.73 -8.52)"/><path class="cls-4" d="M205.46,72a.39.39,0,0,1,.39.38.39.39,0,1,1-.39-.38M204,72a.4.4,0,0,1,.39.38.39.39,0,0,1-.39.39.38.38,0,0,1-.38-.39A.38.38,0,0,1,204,72m-1.08,1.71h-.61v-.2h2v.2h-.61v3.65c0,.81.39,1.24,1.11,1.24s1.27-.53,1.27-1.53V73.71h-.59v-.2h1.43v.2h-.6v3.38c0,1.19-.55,1.77-1.74,1.77a1.43,1.43,0,0,1-1.63-1.45Z" transform="translate(-19.73 -8.52)"/><path class="cls-4" d="M210.47,75.79c.95,0,1.35-.18,1.35-1.08s-.33-1-1.13-1H210v2.08Zm-1.23,2.74V73.71h-.59v-.2h2.2c1.2,0,1.83.43,1.83,1.15s-.58,1.19-1.59,1.24V76a1.48,1.48,0,0,1,1.35,1.13,10.51,10.51,0,0,0,.11,1.24.37.37,0,0,0,.4.27,1,1,0,0,0,.4-.1v.19a1.78,1.78,0,0,1-.73.17c-.69,0-1-.54-1-1.6a1.26,1.26,0,0,0-.24-.91,1.22,1.22,0,0,0-.89-.36H210v2.54h.61v.19h-2v-.19Z" transform="translate(-19.73 -8.52)"/><path class="cls-4" d="M217.22,73.51v.2h.58v4.82h-.58v.2h2v-.2h-.59V73.71h.59v-.2Zm2.88,0v.2h.66l-2.08,2.2V76l2,2.54H220v.2h2v-.21h-.44l-2.3-2.88,1.82-1.93h.59v-.2Z" transform="translate(-19.73 -8.52)"/><path class="cls-4" d="M224.3,73.71h-.62v-.2h2v.2h-.6v3.65c0,.81.39,1.24,1.1,1.24s1.28-.53,1.28-1.53V73.71h-.59v-.2h1.43v.2h-.6v3.38a1.54,1.54,0,0,1-1.74,1.77,1.43,1.43,0,0,1-1.63-1.45Z" transform="translate(-19.73 -8.52)"/><polygon class="cls-4" points="213.57 64.98 213.57 65.18 214.16 65.18 214.16 68.72 211.94 64.98 210.42 64.98 210.42 65.18 211 65.18 211 70 210.41 70 210.41 70.2 211.84 70.2 211.84 70 211.25 70 211.25 65.28 214.21 70.33 214.42 70.33 214.42 65.18 215.02 65.18 215.02 64.98 213.57 64.98"/><path class="cls-4" d="M237,78.75V77.38h.15a1.63,1.63,0,0,0,1.5,1.25,1.26,1.26,0,0,0,1.33-1.22c0-.63-.45-.74-1.31-1-1.08-.34-1.66-.65-1.66-1.57a1.42,1.42,0,0,1,1.52-1.45,2.07,2.07,0,0,1,1.05.31.13.13,0,0,0,.07,0l.15-.17h.17v1.19h-.15a1.41,1.41,0,0,0-1.37-1.12,1,1,0,0,0-1.07.93c0,.45.33.69,1,.88a4.26,4.26,0,0,1,1.43.52,1.4,1.4,0,0,1,.53,1.16,1.65,1.65,0,0,1-1.77,1.77,2,2,0,0,1-1.14-.36s0,0-.06,0l-.24.25Z" transform="translate(-19.73 -8.52)"/><path class="cls-4" d="M243.08,78.53h.66V73.71h-.26c-.76,0-1,.35-1.25,1.33h-.17l.07-1.52h4l.06,1.49H246c-.12-.94-.47-1.3-1.28-1.3h-.21v4.82h.64v.19h-2.09Z" transform="translate(-19.73 -8.52)"/><path class="cls-4" d="M253.28,76.89v.18h-.48c0,1.14-.72,1.78-2,1.78s-2.28-1-2.28-2.67a2.94,2.94,0,0,1,.69-2,2.09,2.09,0,0,1,1.65-.8,2,2,0,0,1,1.29.43l.29-.28h.11v1.33h-.16a1.5,1.5,0,0,0-1.49-1.29c-1,0-1.49.85-1.49,2.61s.35,2.44,1.36,2.44,1.18-.42,1.18-1.39v-.19h-.73v-.18Z" transform="translate(-19.73 -8.52)"/><path class="cls-4" d="M254.81,78.53h.58V73.71h-.58v-.2h3.87v1.25h-.16c-.13-.85-.5-1.05-1.35-1.05h-1v2.2h.16c.67,0,.92-.2,1-.82h.16v2h-.16c0-.71-.33-.94-1.09-.94h0v2.42h1.1c.88,0,1.21-.32,1.41-1.29h.18l-.09,1.48h-4Z" transform="translate(-19.73 -8.52)"/><path class="cls-4" d="M260.68,78.75V77.38h.15a1.63,1.63,0,0,0,1.49,1.25,1.27,1.27,0,0,0,1.34-1.22c0-.63-.45-.74-1.31-1-1.08-.34-1.66-.65-1.66-1.57a1.42,1.42,0,0,1,1.53-1.45,2,2,0,0,1,1,.31.12.12,0,0,0,.08,0l.15-.17h.17v1.19h-.15a1.41,1.41,0,0,0-1.37-1.12,1,1,0,0,0-1.07.93c0,.45.33.69,1,.88a4.26,4.26,0,0,1,1.43.52,1.4,1.4,0,0,1,.53,1.16,1.66,1.66,0,0,1-1.78,1.77,2,2,0,0,1-1.13-.36s0,0-.06,0l-.24.25Z" transform="translate(-19.73 -8.52)"/><path class="cls-4" d="M269.78,77.33v1.39h-.17l-.24-.25a2,2,0,0,1-1.26.38,2.36,2.36,0,0,1-2.22-2.65,3.05,3.05,0,0,1,.63-1.94,2.19,2.19,0,0,1,1.68-.85,1.78,1.78,0,0,1,1.15.41l.26-.25h.13v1.32h-.17c-.23-.86-.71-1.3-1.4-1.3-1,0-1.38.9-1.38,2.76a3.43,3.43,0,0,0,.28,1.71,1.19,1.19,0,0,0,1,.58,1.56,1.56,0,0,0,1.54-1.31Z" transform="translate(-19.73 -8.52)"/><polygon class="cls-4" points="255.17 64.98 255.17 65.18 255.75 65.18 255.75 67.39 253.51 67.39 253.51 65.18 254.1 65.18 254.1 64.98 252.13 64.98 252.13 65.18 252.72 65.18 252.72 70 252.13 70 252.13 70.2 254.1 70.2 254.1 70 253.51 70 253.51 67.61 255.75 67.61 255.75 70 255.17 70 255.17 70.2 257.14 70.2 257.14 70 256.55 70 256.55 65.18 257.14 65.18 257.14 64.98 255.17 64.98"/><polygon class="cls-4" points="258.81 64.98 258.81 65.18 259.47 65.18 259.47 70 258.81 70 258.81 70.2 260.94 70.2 260.94 70 260.27 70 260.27 65.18 260.94 65.18 260.94 64.98 258.81 64.98"/><path class="cls-4" d="M286.88,77.33v1.39h-.17l-.25-.25a2,2,0,0,1-1.26.38A2.36,2.36,0,0,1,283,76.2a3.11,3.11,0,0,1,.63-1.94,2.19,2.19,0,0,1,1.69-.85,1.82,1.82,0,0,1,1.15.41l.26-.25h.12v1.32h-.17c-.22-.86-.7-1.3-1.4-1.3-1,0-1.38.9-1.38,2.76a3.43,3.43,0,0,0,.28,1.71,1.19,1.19,0,0,0,1,.58,1.58,1.58,0,0,0,1.55-1.31Z" transform="translate(-19.73 -8.52)"/><polygon class="cls-4" points="272.27 64.98 272.27 65.18 272.86 65.18 272.86 67.39 270.61 67.39 270.61 65.18 271.2 65.18 271.2 64.98 269.23 64.98 269.23 65.18 269.82 65.18 269.82 70 269.23 70 269.23 70.2 271.2 70.2 271.2 70 270.61 70 270.61 67.61 272.86 67.61 272.86 70 272.27 70 272.27 70.2 274.24 70.2 274.24 70 273.65 70 273.65 65.18 274.24 65.18 274.24 64.98 272.27 64.98"/><path class="cls-4" d="M297,78.53h.66V73.71h-.26c-.76,0-1.05.35-1.25,1.33H296l.08-1.52h4l.06,1.49h-.19c-.12-.94-.47-1.3-1.28-1.3h-.22v4.82h.65v.19H297Z" transform="translate(-19.73 -8.52)"/><path class="cls-4" d="M302.13,78.53h.59V73.71h-.59v-.2H306v1.25h-.16c-.13-.85-.5-1.05-1.35-1.05h-1v2.2h.16c.67,0,.92-.2,1-.82h.16v2h-.16c0-.71-.33-.94-1.09-.94h0v2.42h1.1c.88,0,1.21-.32,1.41-1.29h.17l-.08,1.48h-4Z" transform="translate(-19.73 -8.52)"/><path class="cls-5" d="M49.42,88.92c-.48,0-1,0-1.43,0l-.73-.06c-.72-.1-1.45-.17-2.17-.3a19.68,19.68,0,0,1-2.92-.79c-.62-.22-1.24-.43-1.84-.68s-1-.46-1.43-.71c-.69-.38-1.38-.77-2-1.19s-1.51-1-2.22-1.52-1.38-1.17-2-1.78-1.18-1.12-1.75-1.69c-.42-.41-.82-.83-1.21-1.28s-.7-.88-1.06-1.32a31.78,31.78,0,0,1-2.21-3.19c-.4-.66-.76-1.35-1.16-2A24.78,24.78,0,0,1,24,69.92c-.32-.66-.6-1.33-.86-2-.39-1.05-.79-2.11-1.12-3.19s-.64-2.26-.93-3.39c-.13-.47-.22-1-.31-1.43-.14-.76-.28-1.52-.39-2.28-.16-1.12-.31-2.24-.42-3.36s-.16-2-.21-3c0-.55,0-1.11,0-1.66s0-1.11,0-1.66,0-1.23,0-1.84.06-1,.1-1.45.08-1,.14-1.52c.07-.67.17-1.32.27-2s.17-1,.26-1.57c.15-.87.31-1.75.48-2.61.24-1.21.58-2.39.93-3.57s.79-2.4,1.25-3.58a23,23,0,0,1,1.18-2.63c.11-.22.18-.45.29-.67.36-.71.71-1.43,1.09-2.12.27-.5.58-1,.89-1.45l1.18-1.76c.54-.79,1.15-1.53,1.75-2.27.3-.38.69-.69,1-1.07.44-.56,1-1,1.46-1.55a10.65,10.65,0,0,1,1-1c.46-.4.93-.8,1.4-1.18s.87-.68,1.32-1,1.13-.78,1.72-1.14,1.21-.73,1.84-1.06A25.65,25.65,0,0,1,42,9.83a17.83,17.83,0,0,1,3.29-.91c.69-.12,1.38-.24,2.07-.31s1.53-.07,2.29-.08,1.24,0,1.86,0c.39,0,.77.1,1.15.14a18.55,18.55,0,0,1,2.67.53,21.33,21.33,0,0,1,3.2,1.13c.74.33,1.47.68,2.19,1a6.9,6.9,0,0,1,.77.47c.7.46,1.41.91,2.09,1.39s1.16.86,1.71,1.33,1.12.93,1.63,1.45,1.11,1.05,1.63,1.61,1.13,1.3,1.69,2a21.23,21.23,0,0,1,1.53,2.13c.36.55.72,1.09,1.07,1.65a17.7,17.7,0,0,1,1,1.75c.42.89.89,1.75,1.33,2.63.2.4.37.81.55,1.22s.35.81.5,1.23c.27.74.51,1.49.77,2.23a32.74,32.74,0,0,1,1,3.64c.28,1.28.54,2.56.77,3.85.16.91.27,1.84.38,2.76.08.74.11,1.48.2,2.22a46.54,46.54,0,0,1,.12,5.28c0,.73,0,1.46-.1,2.19-.07,1-.15,2-.27,3-.19,1.49-.43,3-.75,4.45-.18.84-.32,1.7-.56,2.52-.39,1.37-.82,2.71-1.27,4.06-.19.58-.45,1.15-.68,1.72s-.5,1.17-.76,1.74-.59,1.22-.9,1.82-.53,1-.8,1.53a2.2,2.2,0,0,1-.15.26c-.51.79-1,1.58-1.55,2.36a24.25,24.25,0,0,1-1.83,2.44c-.47.52-.92,1-1.38,1.58-.28.31-.55.63-.86.92s-.76.67-1.14,1c-.55.48-1.1,1-1.67,1.46-.35.29-.72.56-1.08.83-.19.14-.41.26-.6.41a18.26,18.26,0,0,1-2.35,1.44,26.32,26.32,0,0,1-2.38,1.18A19.47,19.47,0,0,1,55,88.28a18.46,18.46,0,0,1-2.94.51c-.41,0-.82.11-1.22.13S49.89,88.92,49.42,88.92Zm-.05-.53v0l1.7-.1c.46,0,.93,0,1.39-.12a20.42,20.42,0,0,0,3.61-.87c.74-.25,1.48-.52,2.21-.82a21.74,21.74,0,0,0,2.63-1.35c.83-.5,1.66-1,2.45-1.58a20.39,20.39,0,0,0,1.79-1.43c.41-.38.88-.71,1.29-1.09s.86-.83,1.27-1.27,1-1.17,1.56-1.75a21.15,21.15,0,0,0,1.88-2.52,33.55,33.55,0,0,0,2.08-3.32c.34-.7.72-1.37,1.06-2.07s.68-1.47,1-2.21c.22-.5.45-1,.63-1.53.28-.8.53-1.62.77-2.44s.52-1.78.75-2.68.39-1.8.58-2.7c.13-.63.27-1.26.35-1.9.16-1.18.28-2.37.42-3.56,0-.4.09-.81.11-1.22,0-.21,0-.43,0-.63A7.34,7.34,0,0,0,79,49.78c0-1.06,0-2.11,0-3.16,0-.52,0-1-.08-1.55s-.08-1-.13-1.46q-.1-1-.24-2c-.06-.47-.15-.94-.23-1.41s-.13-.85-.21-1.28c-.13-.63-.27-1.25-.41-1.88-.09-.4-.16-.8-.27-1.2-.19-.73-.38-1.46-.6-2.18-.29-.93-.56-1.87-.9-2.78s-.78-1.93-1.24-2.86a36,36,0,0,0-2-3.73c-.5-.77-1-1.55-1.49-2.32-.24-.38-.49-.77-.76-1.13C70,20.26,69.5,19.7,69,19.15s-.74-.88-1.13-1.3-1.08-1.05-1.62-1.58a3.31,3.31,0,0,0-.32-.33c-.69-.57-1.39-1.14-2.09-1.69-.43-.33-.88-.63-1.33-.94-.25-.17-.52-.34-.78-.49-.71-.43-1.4-.86-2.12-1.25a21.73,21.73,0,0,0-3.56-1.48,17.48,17.48,0,0,0-3.49-.8,22.64,22.64,0,0,0-2.85-.22,18.26,18.26,0,0,0-2.09.08c-.79.08-1.57.23-2.36.38a15.85,15.85,0,0,0-2.59.73l-1.31.47a17.24,17.24,0,0,0-2.49,1.19c-.81.46-1.57,1-2.35,1.51-.47.31-.94.62-1.38,1s-1.09.93-1.63,1.41-1.17,1-1.72,1.59-1.14,1.24-1.69,1.87c-.37.42-.73.83-1.06,1.28-.47.64-.92,1.3-1.36,2s-.83,1.26-1.2,1.92-.88,1.59-1.3,2.39c-.32.62-.63,1.25-.9,1.89-.41,1-.81,2-1.18,3s-.69,2.11-1,3.18a39.48,39.48,0,0,0-.93,4c-.25,1.53-.48,3.07-.7,4.6-.09.62-.12,1.26-.18,1.89,0,.31-.05.64-.06,1,0,.58,0,1.17,0,1.76a8.43,8.43,0,0,0-.05.86c.05.49,0,1,0,1.46,0,1,.05,2,.14,3,.1,1.16.25,2.31.43,3.46s.43,2.39.66,3.59a28.53,28.53,0,0,0,.81,3.15c.17.56.33,1.12.51,1.68s.33,1,.54,1.55c.51,1.22,1,2.45,1.58,3.66a28.24,28.24,0,0,0,1.33,2.56c.6,1,1.26,2,1.91,2.92a12.26,12.26,0,0,0,1.24,1.65c.3.33.55.71.85,1s.75.82,1.13,1.22.8.83,1.23,1.22,1.16,1,1.75,1.48,1,.83,1.57,1.23a23,23,0,0,0,2.76,1.71c.74.42,1.51.78,2.29,1.13a12.06,12.06,0,0,0,1.64.63,24.86,24.86,0,0,0,2.57.67,21.29,21.29,0,0,0,3.73.41h.43" transform="translate(-19.73 -8.52)"/><path class="cls-5" d="M30,55.46v-.35A1.75,1.75,0,0,1,30.32,54a1.65,1.65,0,0,1,1.14-.6l.19,0s0,0,.08-.06-.06-.2-.1-.3a1.48,1.48,0,0,1,0-1.13,1.7,1.7,0,0,1,.63-1,.44.44,0,0,0,.2-.39A2.23,2.23,0,0,1,33.2,49a1.67,1.67,0,0,1,.44-.23,2.28,2.28,0,0,1,1.21-.13c.18,0,.23.1.18.27a.76.76,0,0,1-.14.3,3.73,3.73,0,0,0-.53,1.31,3.69,3.69,0,0,0,.32,2.71,5.07,5.07,0,0,0,1.13,1.51,2.33,2.33,0,0,1,.69,2.12c0,.17-.06.34-.1.52l.88.13a1.87,1.87,0,0,1,1.24,1A5.23,5.23,0,0,1,39.11,60c0,.12.08.23.12.36.2-.13.18-.31.21-.46.15-.67.28-1.34.4-2s.27-1.57.42-2.35.31-1.45.47-2.17.31-1.52.47-2.28c0-.13.07-.26.1-.39a3.08,3.08,0,0,0-.06-1.7,8.6,8.6,0,0,0-.63-1.34,2,2,0,0,0-.14-.16,1.81,1.81,0,0,1-1.27.13,1,1,0,0,1-.81-.74c-.07-.22-.12-.45-.18-.69h-.12a2,2,0,0,1-.94.14,1.52,1.52,0,0,1-1-.33A4.58,4.58,0,0,0,35,45.31a3.72,3.72,0,0,0-1.75-.23,4.13,4.13,0,0,0-1.73.71l-.17.11c-.21.11-.35,0-.37-.19a2.6,2.6,0,0,1,.51-1.84,3,3,0,0,1,.72-.6.47.47,0,0,0,.24-.43,1.57,1.57,0,0,1,1.75-1.55.71.71,0,0,0,.14,0c0-.29.06-.57.11-.86a4,4,0,0,1,.63-1.57,3.54,3.54,0,0,1,1.73-1.28,2.89,2.89,0,0,1,.78-.12c.21,0,.28.11.2.31s-.26.57-.36.86a3.9,3.9,0,0,0,0,2.85,8.68,8.68,0,0,0,.55,1.1,3,3,0,0,0,.5.61,1.81,1.81,0,0,1,.59,1.43V45h.24a1.61,1.61,0,0,1,1.67.76,8,8,0,0,1,.52,1,5.2,5.2,0,0,1,.2.8c0,.11.06.22.08.33h.07a1.45,1.45,0,0,0,.11-.26c.17-.71.34-1.42.5-2.13l.69-2.91c.18-.75.36-1.5.55-2.25.1-.36.22-.72.34-1.08a1.8,1.8,0,0,0-.11-1.23,5.12,5.12,0,0,0-.31-.62.26.26,0,0,0-.28-.14,2.06,2.06,0,0,1-.92-.1A.81.81,0,0,1,42.1,37a3.17,3.17,0,0,1-.46-.51,1.69,1.69,0,0,1-.18-1v-.26c-.13,0-.25,0-.36,0a1.68,1.68,0,0,1-1.41-.52,3.66,3.66,0,0,0-1-.93,4.83,4.83,0,0,0-.87-.39,2.44,2.44,0,0,0-1.78.13,5.92,5.92,0,0,0-.92.58c-.06,0-.11.11-.18.15s-.32,0-.33-.17a2.56,2.56,0,0,1,.7-2,1.82,1.82,0,0,1,.9-.6.44.44,0,0,0,.35-.35.77.77,0,0,1,.45-.5,2.6,2.6,0,0,1,2-.19l.19,0a2.25,2.25,0,0,0,0-.26,3.92,3.92,0,0,0-.13-.49,1.48,1.48,0,0,1,.6-1.6A1.1,1.1,0,0,1,40,28a.43.43,0,0,0,.34-.33c.21-.78.86-1,1.54-1.12a.35.35,0,0,1,.48.29l-.32.57a3.79,3.79,0,0,0-.07,3.37c.25.57.51,1.15.72,1.75a2.24,2.24,0,0,1,0,1.49,2.13,2.13,0,0,0-.07.27.63.63,0,0,0,.2.06,1.36,1.36,0,0,1,1.25.82,4.38,4.38,0,0,1,.65,2,.5.5,0,0,0,.06.17,1,1,0,0,0,.35-.48c.3-.57.56-1.17.91-1.7a11.72,11.72,0,0,1,1.37-1.84c.31-.31.54-.71.87-1a1,1,0,0,0,.32-.81c0-.63,0-1.26,0-1.89,0-.12,0-.24,0-.36-.18-.05-.32-.1-.47-.13a2.16,2.16,0,0,1-1-.56,1,1,0,0,1,0-1.34,3.27,3.27,0,0,1,.89-.51,2.73,2.73,0,0,0,.53-.22,1.72,1.72,0,0,0-.17-.19,2.8,2.8,0,0,1-1-1.24A6.58,6.58,0,0,1,47.07,24a3.2,3.2,0,0,0-1.4-2.25,3.25,3.25,0,0,0-2.58-.57.77.77,0,0,1-.3,0c-.2,0-.27-.19-.13-.33a6.47,6.47,0,0,1,.59-.58,3.81,3.81,0,0,1,1.39-.74,1,1,0,0,0,.23-.13A2.75,2.75,0,0,1,46.14,19c.31,0,.37-.06.42-.37a2.52,2.52,0,0,1,.68-1.3,1.77,1.77,0,0,1,.35-.26,1,1,0,0,0,.47-.65,4.21,4.21,0,0,1,.2-.63,1.33,1.33,0,0,1,1.5-.78,2.11,2.11,0,0,1,.68.39,2.31,2.31,0,0,1,.93,2c0,.22.07.33.28.43a1.66,1.66,0,0,1,1,1.26c0,.18.05.35.08.57a3.06,3.06,0,0,0,.32-.05,2.32,2.32,0,0,1,1.56,0A2.28,2.28,0,0,1,56,20.73c.12.19.06.33-.18.37l-.76.11a3.15,3.15,0,0,0-1.82,1,3.74,3.74,0,0,0-1,2.39,2.18,2.18,0,0,1-.82,1.61l-.48.36c.23.1.42.2.62.28a1.53,1.53,0,0,1,.71.57.88.88,0,0,1-.25,1.28,3,3,0,0,1-1,.45c-.29.07-.33.15-.33.43,0,.64,0,1.28,0,1.92a1.11,1.11,0,0,1,0,.26.48.48,0,0,0,.4.61.42.42,0,0,1,.16.11,19.16,19.16,0,0,1,2.33,3.26c.23.39.44.79.67,1.18a3.42,3.42,0,0,0,.23.33A1.52,1.52,0,0,0,54.6,37a2.2,2.2,0,0,0,.12-.44,2.83,2.83,0,0,1,.63-1.2,1.37,1.37,0,0,1,1.18-.62h.1l.07,0c0-.2-.08-.4-.11-.61A3.08,3.08,0,0,1,56.7,33a6.92,6.92,0,0,1,.57-1.38,4.72,4.72,0,0,0,.51-2.11,3.06,3.06,0,0,0-.47-1.78,1.41,1.41,0,0,1-.19-.39.22.22,0,0,1,.22-.29,1.67,1.67,0,0,1,1.27.46,2.11,2.11,0,0,1,.59.79.28.28,0,0,0,.2.14,1,1,0,0,1,.78.5,1.5,1.5,0,0,1,.2,1.19c-.05.19-.1.38-.14.58a1.29,1.29,0,0,0,0,.2c.12,0,.23,0,.33-.06a3,3,0,0,1,1.76.17.79.79,0,0,1,.52.57.34.34,0,0,0,.25.28,2.62,2.62,0,0,1,1.22.88,2,2,0,0,1,.47,1c0,.23.06.46.07.7a.26.26,0,0,1-.09.22.3.3,0,0,1-.24,0,1.42,1.42,0,0,1-.29-.21,2.7,2.7,0,0,0-2.35-.67,3,3,0,0,0-1.49.61,3.33,3.33,0,0,0-.42.42,2,2,0,0,1-2.11.79.12.12,0,0,0-.08,0c0,.22,0,.45-.09.67a1.05,1.05,0,0,1-1.32.83,7.26,7.26,0,0,1-.7-.24,2.12,2.12,0,0,0-.42.8,3.56,3.56,0,0,0,.21,2.21A24.85,24.85,0,0,1,56.22,43c.14.7.3,1.41.44,2.11s.25,1.33.39,2a2.47,2.47,0,0,0,.26.87c.21-.53.38-1,.6-1.5a4.56,4.56,0,0,1,.45-.77,1,1,0,0,1,.65-.44l.94-.2C60,45,60,45,60,45a2.14,2.14,0,0,1,.71-2.24,3.85,3.85,0,0,0,1-1.43A4.27,4.27,0,0,0,62,39a7.21,7.21,0,0,0-.46-1.52c-.12-.3,0-.4.29-.38a2.61,2.61,0,0,1,1.4.56,4.13,4.13,0,0,1,1.2,1.36,2.76,2.76,0,0,1,.32,1.17c0,.25,0,.5.08.73l.08,0a1.53,1.53,0,0,1,1.09.7,2,2,0,0,1,.24.57,1.23,1.23,0,0,1,0,.2.68.68,0,0,0,.42.65A2.5,2.5,0,0,1,68,44.94a3,3,0,0,1,0,.84c0,.25-.21.31-.42.15s-.49-.39-.75-.55A3.43,3.43,0,0,0,64.33,45a3.19,3.19,0,0,0-1.3.58,2.35,2.35,0,0,1-1.75.47.5.5,0,0,0-.17,0l-.08.06a1.49,1.49,0,0,1-2.52,1.39l-.09,0A5.78,5.78,0,0,0,58,48.7c-.07.33-.16.65-.22,1a4.44,4.44,0,0,0,.15,1.54c.12.71.24,1.42.37,2.13s.22,1.15.33,1.73c.16.85.31,1.69.47,2.54s.26,1.5.4,2.25a3.94,3.94,0,0,0,.14.49h.06c.06-.18.11-.35.16-.53a2.93,2.93,0,0,1,1.78-2,2.41,2.41,0,0,1,.81-.06h.4c-.06-.11-.08-.18-.12-.24a1.94,1.94,0,0,1-.32-1.88,5.19,5.19,0,0,1,.25-.79,7,7,0,0,1,.63-1,8.08,8.08,0,0,0,1.07-2.06,2.66,2.66,0,0,0,.16-1.5c-.11-.54-.26-1.07-.4-1.6-.08-.28,0-.39.26-.38a2.62,2.62,0,0,1,.75.13,3.07,3.07,0,0,1,2.1,2.34,3.4,3.4,0,0,1,0,1.31,3.51,3.51,0,0,1-.4,1.26.42.42,0,0,0,0,.14l.27,0c.36,0,.73,0,1.09.12a1.12,1.12,0,0,1,.91,1.17v.24a1,1,0,0,0,.18.09,2.69,2.69,0,0,1,1.49,1.67,2.06,2.06,0,0,1,0,1.18c-.09.33-.32.39-.55.14a3.2,3.2,0,0,0-.89-.75,3,3,0,0,0-2.37-.25,4.76,4.76,0,0,0-1.21.73,2.23,2.23,0,0,1-2.14.31l-.19,0c.06.13.08.23.13.32a1.37,1.37,0,0,1-.41,1.72,1,1,0,0,1-1.56-.34s-.05-.09-.08-.14-.23,0-.32.12a2.43,2.43,0,0,0-.79,1.31c-.12.52-.21,1-.28,1.56A4.3,4.3,0,0,0,60.14,64c.12.75.25,1.5.37,2.26.16,1,.32,2,.46,3.08.09.63.16,1.25.25,1.88.14,1,.3,2,.43,3.06a5.69,5.69,0,0,1,.06.83.81.81,0,0,1-.63.72c-.32.05-.64.05-1,.09l-1,.11c-.84.1-1.67.21-2.51.3-.25,0-.51,0-.77,0-.87,0-1.74.1-2.62.13s-1.59.07-2.39.08-1.53,0-2.29-.07c-.29,0-.58,0-.87,0-.77,0-1.55-.06-2.32-.12-1-.06-1.94-.14-2.91-.22C41.7,76.1,41,76,40.21,76s-1.65-.23-2.47-.34a2,2,0,0,1-.26-.06.57.57,0,0,1-.42-.51,1.7,1.7,0,0,1,0-.39c.12-.88.23-1.76.36-2.64s.31-2,.46-3c.08-.53.14-1,.23-1.58s.23-1.35.34-2a7.61,7.61,0,0,0,.09-.82,10,10,0,0,0-.14-2.12c-.07-.38-.12-.77-.19-1.15a1.7,1.7,0,0,0-.42-.85l-.38.17a1.52,1.52,0,0,1-1.58-.14,1.46,1.46,0,0,1-.64-1.38,2.84,2.84,0,0,0,0-.51.34.34,0,0,0-.14,0,2,2,0,0,1-1.47-.29,5.35,5.35,0,0,0-2.09-.71,3.72,3.72,0,0,0-1.48.17,5.25,5.25,0,0,0-1.92,1.13.57.57,0,0,1-.52.19A2.93,2.93,0,0,1,30,55.46M60.51,74.1c0-.15,0-.26,0-.37-.08-.66-.15-1.32-.23-2-.05-.45-.11-.9-.17-1.35s-.15-1-.21-1.54-.11-1.08-.18-1.61-.17-1-.26-1.5c-.18-1.11-.37-2.21-.55-3.31-.1-.55-.19-1.11-.29-1.66s-.17-1.05-.27-1.57-.22-1.13-.33-1.69-.17-1-.26-1.47-.18-.91-.26-1.37c-.11-.66-.18-1.33-.3-2-.2-1.08-.42-2.15-.63-3.22l-.18-.85c-.07-.32-.13-.64-.2-1s-.2-.86-.29-1.29c-.13-.67-.25-1.34-.39-2-.18-.88-.38-1.75-.55-2.63a15.24,15.24,0,0,0-.78-2.57,20,20,0,0,0-1.76-3.6c-.27-.43-.56-.85-.86-1.26s-.68-.88-1-1.31a1.54,1.54,0,0,0-.48-.44.35.35,0,0,1-.24-.38c0-.77,0-1.54,0-2.31a1.22,1.22,0,0,0,0-.27c0-.18-.08-.21-.34-.22s-.25.06-.25.23,0,.56,0,.83c0,.58,0,1.15,0,1.73a.46.46,0,0,1-.33.51.76.76,0,0,0-.36.28c-.5.65-1,1.31-1.46,2q-.35.47-.66,1c-.16.25-.27.53-.42.78a14.55,14.55,0,0,0-1.2,2.52,20.93,20.93,0,0,0-.8,2.7c-.28,1.27-.61,2.53-.91,3.8-.33,1.44-.65,2.89-1,4.34l-.36,1.65c-.13.64-.24,1.28-.37,1.92-.18.89-.38,1.77-.55,2.66-.12.57-.2,1.15-.31,1.72-.21,1.15-.45,2.3-.66,3.45-.14.75-.26,1.5-.39,2.25-.1.54-.19,1.07-.28,1.6l-.45,2.68c-.09.58-.19,1.16-.28,1.74-.13.85-.24,1.71-.36,2.56-.1.66-.21,1.31-.31,2,0,.26,0,.32.33.28,1.22-.16,2.45-.35,3.68-.49,1-.12,2.07-.19,3.11-.27L46,73.63c.54,0,1.08-.1,1.62-.12.92,0,1.85,0,2.77,0s1.83,0,2.75.06c.65.07,1.31.05,2,.07.43,0,.85.07,1.29.09l.39,0a2.25,2.25,0,0,1,.26,0c.24,0,.48.06.72.09l2,.26c.2,0,.41,0,.67,0M55.2,20.45a.48.48,0,0,0-.09-.14,2,2,0,0,0-2.32-.21,1.1,1.1,0,0,1-1,.19.29.29,0,0,0-.16,0,2.41,2.41,0,0,0-1.88,1.27.53.53,0,0,0,0,.53,2.54,2.54,0,0,1,.27.74,1.81,1.81,0,0,1-.28,1.39.26.26,0,0,1-.46,0,2.43,2.43,0,0,1-.15-1.87.81.81,0,0,0-.11-.78c-.05-.08-.1-.17-.16-.25a4.5,4.5,0,0,0-1-.93,3.25,3.25,0,0,0-2.06-.64,4.06,4.06,0,0,0-2,.61,1,1,0,0,0-.41.4c.21,0,.39.08.57.09A3.6,3.6,0,0,1,46.47,22a3.5,3.5,0,0,1,1,2.13,3.16,3.16,0,0,0,.4,1.2,1.88,1.88,0,0,0,2.46.88,1.63,1.63,0,0,0,.9-.92,3.09,3.09,0,0,0,.19-1A4,4,0,0,1,52,22.32a3.78,3.78,0,0,1,1-1.09,3.4,3.4,0,0,1,.83-.48,8.45,8.45,0,0,1,1.4-.3M64.49,48.8c.06.24.12.48.19.71a4,4,0,0,1,.17,1.34c0,.2,0,.4-.06.59a2.84,2.84,0,0,1-.1.49c-.16.38-.35.76-.52,1.14a5.68,5.68,0,0,1-.88,1.43,1.87,1.87,0,0,0-.3,2.24,1.75,1.75,0,0,0,1.93.83,4,4,0,0,0,1-.53,4.2,4.2,0,0,1,.9-.5,3.14,3.14,0,0,1,1.61-.06,2.41,2.41,0,0,1,1.48.83,3.88,3.88,0,0,0,.46.4,1.4,1.4,0,0,0,0-.37,4.44,4.44,0,0,0-.29-.87,2.15,2.15,0,0,0-1.27-1c-.32-.12-.32-.16-.23-.49a.67.67,0,0,0-.35-.82L68,54a2.29,2.29,0,0,0-2,.28,2.42,2.42,0,0,0-1.17,1.76.9.9,0,0,1-.09.32.5.5,0,0,1-.63.22.42.42,0,0,1-.27-.51.77.77,0,0,1,.1-.25,6.05,6.05,0,0,1,1.45-1.62,4.08,4.08,0,0,0,1-.91,3,3,0,0,0,.31-2.76,3.48,3.48,0,0,0-.2-.38,2.49,2.49,0,0,0-1.37-1.28.88.88,0,0,0-.65-.11M32.41,51.28a2.12,2.12,0,0,0-.56,1.13s0,.06,0,.1a1.78,1.78,0,0,0,.85,1.25,7.31,7.31,0,0,1,.89.69,4.09,4.09,0,0,1,1.14,1.64c.1.29.18.58.25.87a.49.49,0,0,1-.16.5.56.56,0,0,1-.74-.32c0-.17-.05-.35-.08-.52s-.11-.65-.2-1a2,2,0,0,0-.47-.9,6,6,0,0,0-.84-.66,1.61,1.61,0,0,0-.79-.31,1.17,1.17,0,0,0-.95.33c-.29.32-.6.67-.42,1.18,0,0,0,.07,0,.1,0,.29-.07.4-.35.46a3,3,0,0,0-.6.17,2.48,2.48,0,0,0-1.33,1.33,2.5,2.5,0,0,0-.23,1.14l.56-.48A4.59,4.59,0,0,1,31,56.92a4.3,4.3,0,0,1,3.24.94,1.08,1.08,0,0,0,1.21.2.89.89,0,0,0,.32-.32A1.94,1.94,0,0,0,36.09,56a2.53,2.53,0,0,0-.72-1.14A4.53,4.53,0,0,1,34,52.54a7.64,7.64,0,0,1-.13-1,3.89,3.89,0,0,1,.26-1.65c.12-.31.24-.62.38-1a1.6,1.6,0,0,0-1.16.41,2,2,0,0,0-.53,2c-.17.16-.3.14-.43-.08m32.41-9.93-.16.4c0,.1,0,.22-.1.32a2.54,2.54,0,0,1-1.66,1.5c-.11,0-.21.06-.3,0s-.05-.2,0-.3a5.45,5.45,0,0,1,1-1.46c.22-.23.48-.42.71-.65a.5.5,0,0,0,.16-.27A3.39,3.39,0,0,0,64,39.07a3.59,3.59,0,0,0-1.53-1.38c-.14-.07-.28-.2-.47-.1a5.26,5.26,0,0,1,.38,2.18A4.68,4.68,0,0,1,61,43a1.27,1.27,0,0,0-.32,1.71,1.15,1.15,0,0,0,1,.69,1.68,1.68,0,0,0,1-.29,9.27,9.27,0,0,1,.82-.44,4.37,4.37,0,0,1,1.67-.41,5.6,5.6,0,0,1,2.06.41,2.45,2.45,0,0,0,.32.09,1.88,1.88,0,0,0-1.09-1.33.62.62,0,0,1-.46-.66v0a1.28,1.28,0,0,0-1.11-1.34m-.51-7.83a1.06,1.06,0,0,0,0-.18,2.56,2.56,0,0,0-1.32-1.11.53.53,0,0,1-.38-.37.79.79,0,0,0-.57-.55,2.48,2.48,0,0,0-1.78.08.47.47,0,0,0-.3.28,7.49,7.49,0,0,1-1.31,1.9c-.08.1-.18.17-.31.1a.25.25,0,0,1-.11-.32,2.92,2.92,0,0,1,1.15-1.87,1.1,1.1,0,0,0,.51-.59c.07-.33.16-.65.2-1a1,1,0,0,0-.63-1,1.42,1.42,0,0,1-.31-.11c-.1-.06-.23-.14-.25-.24a1.46,1.46,0,0,0-.75-.88,1.5,1.5,0,0,0-.41-.14,2.24,2.24,0,0,0,.06.23,5.1,5.1,0,0,1,.37,1.72A4.84,4.84,0,0,1,57.51,32a7.09,7.09,0,0,0-.57,1.62,1.31,1.31,0,0,0,.66,1.43,1.53,1.53,0,0,0,1.92-.44,4.17,4.17,0,0,1,.86-.82,3.2,3.2,0,0,1,2-.63,4.24,4.24,0,0,1,1.49.25,3.52,3.52,0,0,0,.44.11m-27,4.33a2.9,2.9,0,0,0-1.73,1,3.56,3.56,0,0,0-.85,2.08.71.71,0,0,0,.34.76,9,9,0,0,1,1.28.95,6.36,6.36,0,0,1,1.21,1.6.26.26,0,0,1,0,.34.27.27,0,0,1-.34,0,3.87,3.87,0,0,1-.34-.21,5.66,5.66,0,0,1-1.51-1.29A10.41,10.41,0,0,1,34.62,42a.65.65,0,0,0-.58-.31,1.17,1.17,0,0,0-.71.26,1.12,1.12,0,0,0-.48,1.2c0,.18,0,.3-.14.36a2.79,2.79,0,0,0-.75.47c-.31.23-.37.57-.55.88.06,0,.09,0,.11,0l.09,0a4.73,4.73,0,0,1,1.55-.48,3.52,3.52,0,0,1,1.48.1,5.2,5.2,0,0,1,1.67.86,1.26,1.26,0,0,0,2-.3,1.24,1.24,0,0,0-.08-1.51,6.21,6.21,0,0,1-1.07-1.63,3.86,3.86,0,0,1-.34-1.92,4.78,4.78,0,0,0,.06-.53,2.82,2.82,0,0,1,.24-1c.07-.15.13-.32.2-.52M35.11,33s0,.05,0,.08.23-.11.35-.15a4,4,0,0,1,.67-.21,8.39,8.39,0,0,1,1.12,0,3.09,3.09,0,0,1,1.59.54,5.33,5.33,0,0,1,.93.85,1.63,1.63,0,0,0,1.47.6,1.21,1.21,0,0,0,.94-.59,1.47,1.47,0,0,0,.11-1.34c-.31-.79-.64-1.57-.93-2.38a3.42,3.42,0,0,1-.18-1.53,5.89,5.89,0,0,1,.46-1.69.8.8,0,0,0,0-.18H41.6a1.34,1.34,0,0,0-1,.88.62.62,0,0,1-.48.49,2.55,2.55,0,0,0-.35.14.39.39,0,0,0-.16.1,1.16,1.16,0,0,0-.23,1,4.61,4.61,0,0,1,.16.64,1.07,1.07,0,0,0,.47.7,3,3,0,0,1,1.14,1.95.22.22,0,0,1-.13.27c-.12.06-.18,0-.26-.07a5.52,5.52,0,0,1-1.23-1.83A.51.51,0,0,0,39.3,31a2.12,2.12,0,0,0-2-.14.79.79,0,0,0-.52.57.4.4,0,0,1-.33.32A2.25,2.25,0,0,0,35.11,33M49.46,21.29a1.53,1.53,0,0,0,.16-.22,2.15,2.15,0,0,1,1.22-.95,2.65,2.65,0,0,1,1-.18c.28,0,.38-.09.38-.38a1.48,1.48,0,0,0-.88-1.37s-.09,0-.12-.05a.79.79,0,0,1-.19-.26,4.22,4.22,0,0,1-.1-.62,2.14,2.14,0,0,0-.81-1.54.83.83,0,0,0-1.19,0,1.16,1.16,0,0,0-.34.7,1.55,1.55,0,0,1-.72,1.11A1.87,1.87,0,0,0,47,18.67c-.08.25,0,.31.21.37a2.69,2.69,0,0,1,1.28.8,1.77,1.77,0,0,1,.49.85.91.91,0,0,0,.45.6M52,27.89a.41.41,0,0,0-.19-.39,2.84,2.84,0,0,0-1.4-.63,5.83,5.83,0,0,0-1.72,0,2.48,2.48,0,0,0-1.23.54c-.11.1-.25.19-.26.36a4.13,4.13,0,0,0,4.8.08M38.82,62.61h.1A5.63,5.63,0,0,0,39,62a8.51,8.51,0,0,0-.09-1.52,7.38,7.38,0,0,0-.62-1.74,1.6,1.6,0,0,0-1.36-.93c-.69-.07-1,.22-1.13.89a.76.76,0,0,0,.3.75.89.89,0,0,0,1.05.11.45.45,0,0,1,.55.07,2.58,2.58,0,0,1,.72,1,5.16,5.16,0,0,1,.36,1.44c0,.18.06.36.09.54m5.56-25a1.32,1.32,0,0,0,0-.34,5.23,5.23,0,0,0-.86-2.2.92.92,0,0,0-.79-.4,1,1,0,0,0-1,.87,1,1,0,0,0,.89,1.05.73.73,0,0,0,.39-.05.48.48,0,0,1,.59.17c.24.28.46.58.72.9m-3,10.65c0-.13,0-.18,0-.23a5.83,5.83,0,0,0-.74-2,1.69,1.69,0,0,0-.63-.56,1,1,0,0,0-1.39.56.83.83,0,0,0,.86,1.07.78.78,0,0,0,.46-.3c.18-.22.36-.2.5,0s.4.66.61,1a5.05,5.05,0,0,0,.32.45M60.09,60.57a2.8,2.8,0,0,1,.6-.81,2.2,2.2,0,0,1,1-.57c.42-.09.42-.08.65.28a.26.26,0,0,0,.05.09.61.61,0,0,0,.54.2c.19,0,.25-.2.3-.36a.94.94,0,0,0-.27-1,1.13,1.13,0,0,0-1.16-.2,2.59,2.59,0,0,0-1.7,2.4M57.9,47.71c.07-.13.16-.26.23-.39a.78.78,0,0,1,1.18-.22.56.56,0,0,0,.29.12,1,1,0,0,0,.82-.49.81.81,0,0,0-.25-1.14.63.63,0,0,0-.31-.1,1.87,1.87,0,0,0-1,.24,1.47,1.47,0,0,0-.47.55,3.16,3.16,0,0,0-.54,1.43M55,37.16A5.63,5.63,0,0,1,56,35.92c.15.16.28.28.4.43a.47.47,0,0,0,.41.22.61.61,0,0,0,.52-.84A.92.92,0,0,0,56,35.28a2.21,2.21,0,0,0-.7.82A2.29,2.29,0,0,0,55,37.16m9.25,4.54a4.3,4.3,0,0,0-1,1.27,2.17,2.17,0,0,0,1-1.27m.22,14.19c-.24.27-.24.27,0,.34,0-.09,0-.19,0-.34" transform="translate(-19.73 -8.52)"/><path class="cls-5" d="M72.08,32.39c0-.1,0-.18,0-.27a.52.52,0,0,0-.39-.55.6.6,0,0,0-.66.19,1.23,1.23,0,0,0-.15,1.34,1.2,1.2,0,0,0,1.18.65,1.63,1.63,0,0,0,1.56-1.2,3,3,0,0,0,0-2c-.14-.35-.31-.69-.47-1s-.44-1-.69-1.44-.56-1-.78-1.46-.47-.88-.72-1.31c-.43-.7-.87-1.41-1.32-2.1-.31-.48-.66-.93-1-1.38s-.81-1.05-1.22-1.57a5,5,0,0,0-.4-.4c-.35-.39-.68-.79-1.05-1.16s-.68-.66-1-1c-1.15-1-2.35-1.92-3.58-2.81-.37-.26-.77-.49-1.16-.71-.68-.38-1.35-.77-2-1.1a20.21,20.21,0,0,0-3.55-1.33,14.53,14.53,0,0,0-1.46-.3c-.57-.1-1.14-.19-1.71-.24s-1.12-.07-1.68-.09c-.28,0-.55,0-.83,0s-.71.05-1,.09c-.59.07-1.18.13-1.75.23a18.77,18.77,0,0,0-3.75,1.1,23.26,23.26,0,0,0-2.53,1.18c-.4.22-.78.47-1.16.72-.7.47-1.4.93-2.09,1.42-.44.32-.86.7-1.28,1.06s-.7.6-1,.92c-.5.46-1,.92-1.46,1.4a10.49,10.49,0,0,0-.77.86c-.53.66-1.06,1.33-1.56,2s-1,1.4-1.44,2.11c-.31.46-.58.94-.87,1.42-.15.24-.32.48-.45.73-.47.88-.93,1.77-1.37,2.66-.12.24-.16.53-.26.79a8,8,0,0,0-.49,2.26,1.62,1.62,0,0,0,2.12,1.7,1.2,1.2,0,0,0,.46-2,1.07,1.07,0,0,0-.19-.13.5.5,0,0,0-.54,0,.44.44,0,0,0-.18.49c.07.34-.09.49-.42.45a.27.27,0,0,1-.27-.24,1.34,1.34,0,0,1,1.35-1.75,1.19,1.19,0,0,1,1.26,1.17A2.45,2.45,0,0,1,29,33.27a2.18,2.18,0,0,1-.58.63,3.53,3.53,0,0,1-.57.33.55.55,0,0,1-.45.08.36.36,0,0,0-.23,0c-.33.13-.6-.07-.87-.17a2.2,2.2,0,0,1-.51-.35,1.71,1.71,0,0,1-.18-.2,1.76,1.76,0,0,1-.47-1.27,8.55,8.55,0,0,1,.19-1.67,10.76,10.76,0,0,1,1.09-2.91,18.33,18.33,0,0,1,1.11-2c.56-.82,1-1.7,1.59-2.53a23.85,23.85,0,0,1,1.67-2.35c.3-.35.57-.74.88-1.08.5-.55,1-1.09,1.52-1.62.34-.33.71-.62,1.07-.94s.67-.63,1-.94.54-.45.82-.66c.53-.4,1.06-.8,1.61-1.17s1-.61,1.5-.91a21.07,21.07,0,0,1,2.86-1.41,18.16,18.16,0,0,1,2.36-.79c.84-.22,1.72-.32,2.57-.48a18.12,18.12,0,0,1,2.32-.18,9.63,9.63,0,0,1,1.2,0l.4,0a19.47,19.47,0,0,1,3.12.41,11.54,11.54,0,0,1,1.53.42,22.61,22.61,0,0,1,2.3.86c.5.22,1,.46,1.47.72s1,.52,1.47.82.92.6,1.37.93c.72.54,1.45,1.08,2.15,1.67s1.57,1.37,2.31,2.1c.58.58,1.12,1.22,1.65,1.86s.81,1.11,1.23,1.65a35.83,35.83,0,0,1,2.22,3.47c.23.38.43.79.63,1.2.45.89.91,1.79,1.34,2.7a5,5,0,0,1,.49,1.3,1,1,0,0,1,0,.46.73.73,0,0,0,0,.33,2.34,2.34,0,0,1-.43,1.73,1.93,1.93,0,0,1-1.39.83,2.2,2.2,0,0,1-1,0,2.09,2.09,0,0,1-.95-.75,1.94,1.94,0,0,1-.34-1.79,1.46,1.46,0,0,1,1.38-1,1.38,1.38,0,0,1,1.28,1.26c0,.47-.13.62-.64.55" transform="translate(-19.73 -8.52)"/><path class="cls-5" d="M46,83.4a1.17,1.17,0,0,1,0-.26.31.31,0,0,1,.22-.36.39.39,0,0,1,.47.13.81.81,0,0,1,0,1,.75.75,0,0,1-.72.42.85.85,0,0,1-.93-.78,1.83,1.83,0,0,1,2.87-1.85,1.69,1.69,0,0,1,.69,1.1,2.39,2.39,0,0,1-.41,2,2,2,0,0,1-.83.64A6.35,6.35,0,0,1,45,86a9.25,9.25,0,0,1-1.39-.07,7.8,7.8,0,0,1-1.34-.36c-.72-.28-1.44-.58-2.13-.93s-1.35-.72-2-1.12-1.38-.92-2.05-1.41c-.4-.29-.76-.62-1.13-.93s-.85-.75-1.26-1.13-.77-.68-1.11-1.05c-.5-.53-1-1.09-1.45-1.64-.24-.27-.48-.55-.7-.84-.41-.56-.84-1.12-1.23-1.69s-.93-1.46-1.4-2.18a19.36,19.36,0,0,1-1.35-2.44c-.06-.13-.14-.26-.2-.39-.44-1-.91-2-1.31-3s-.63-1.73-.89-2.62c-.36-1.24-.72-2.48-1-3.74a30.92,30.92,0,0,1-.65-3.56c-.06-.52-.17-1-.24-1.54s-.05-.82-.08-1.23-.09-1-.13-1.45-.05-.82-.07-1.23c0-.8-.06-1.59-.06-2.39,0-1.1,0-2.19.08-3.28s.2-2.12.3-3.18c.05-.51.09-1,.19-1.52.17-.8.36-1.59.59-2.38A15.77,15.77,0,0,1,23.55,37a2.09,2.09,0,0,1,.43-.62,3.36,3.36,0,0,1,1-.76,1.57,1.57,0,0,1,1-.14,1.82,1.82,0,0,1,1.3.78,2.16,2.16,0,0,1,.29.7,2.12,2.12,0,0,1-.05,1.36,2.4,2.4,0,0,1-.45.73,1.39,1.39,0,0,1-1.71.23,1,1,0,0,1-.61-1.06c0-.16,0-.33,0-.49a.82.82,0,0,1,.36-.61L25.2,37a.44.44,0,0,1,.52.08.39.39,0,0,1-.11.47.34.34,0,0,0-.09.44.61.61,0,0,0,1,.29,1.32,1.32,0,1,0-1.65-2.06,3,3,0,0,0-1,1.38c-.28.75-.5,1.52-.71,2.29a16.28,16.28,0,0,0-.5,2.94c0,.3-.09.59-.12.89s0,.4,0,.59-.07.53-.09.8,0,.48-.06.73c0,.8-.09,1.61-.12,2.42,0,.38,0,.77,0,1.16s0,.95.05,1.43c.05.87.1,1.74.17,2.62,0,.68.11,1.36.19,2s.21,1.56.35,2.34c.17,1,.37,2,.59,2.93.16.7.37,1.39.56,2.08s.31,1.11.49,1.66c.24.71.48,1.43.76,2.12s.71,1.65,1.09,2.46c.28.61.61,1.18.9,1.78a25.84,25.84,0,0,0,1.57,2.69c.55.84,1.14,1.66,1.75,2.46s1.15,1.37,1.73,2c.22.25.41.52.64.76s.62.56.93.84.73.66,1.1,1a19.39,19.39,0,0,0,2.47,1.85c.64.4,1.26.83,1.9,1.22a9.65,9.65,0,0,0,1.16.58c.75.33,1.5.67,2.27.94a6.46,6.46,0,0,0,1.47.25,4.89,4.89,0,0,0,1.9-.19c.34-.1.67-.24,1-.37s.51-.51.67-.84a1.72,1.72,0,0,0-.58-1.87,1,1,0,0,0-1.1,0,1,1,0,0,0-.54,1c0,.17,0,.19.3.22" transform="translate(-19.73 -8.52)"/><path class="cls-5" d="M52.59,83.42c.15,0,.25,0,.28-.14a1,1,0,0,0-.19-.78,1,1,0,0,0-1.37-.26,1.72,1.72,0,0,0-.59,2,1.67,1.67,0,0,0,1.08,1,7.8,7.8,0,0,0,1.59.36,5.42,5.42,0,0,0,1.84-.13c.45-.11.91-.2,1.36-.33a4.17,4.17,0,0,0,.75-.26c.65-.31,1.3-.61,1.94-1s1.42-.79,2.08-1.25c.86-.61,1.69-1.28,2.52-1.94.57-.46,1.13-.93,1.66-1.42a15.07,15.07,0,0,0,1.1-1.16c.67-.77,1.33-1.54,2-2.33.4-.51.76-1,1.12-1.57s.59-.83.84-1.27c.46-.81.9-1.63,1.35-2.44.24-.45.48-.9.7-1.36s.56-1.2.81-1.82c.4-1,.78-2.07,1.17-3.11,0-.09.07-.19.1-.28.23-.82.47-1.64.68-2.46s.33-1.4.48-2.1.32-1.32.41-2c.14-1.07.37-2.12.42-3.2,0-.66.14-1.32.18-2s0-1.51.08-2.26c0-.42.07-.83.08-1.25,0-.25,0-.49,0-.73,0-.42-.06-.84,0-1.25a10.92,10.92,0,0,0-.08-1.62c0-.47-.08-.95-.14-1.42-.12-1-.24-2.07-.41-3.1-.12-.77-.33-1.53-.46-2.31a3.12,3.12,0,0,0-.5-1.32,2.43,2.43,0,0,0-1.63-1,1.53,1.53,0,0,0-.84.19,2.07,2.07,0,0,0-.8.78.73.73,0,0,0,0,.58,1.32,1.32,0,0,0,.85,1,.72.72,0,0,0,.89-.71s0-.11,0-.15,0-.05,0-.06c-.21-.15-.26-.29-.17-.43a.45.45,0,0,1,.61,0,1.27,1.27,0,0,1,.18.27,1.33,1.33,0,0,1-.6,1.89,1.53,1.53,0,0,1-1.58-.28,2,2,0,0,1-.56-2,1.79,1.79,0,0,1,1.45-1.46,3.25,3.25,0,0,1,.42-.11,2.05,2.05,0,0,1,1.49.43A3.64,3.64,0,0,1,76,37a.82.82,0,0,1,.11.31c.18.82.37,1.64.51,2.47.19,1.1.36,2.21.5,3.32.11.83.2,1.68.23,2.52.05,1.43.05,2.86.05,4.29,0,.68,0,1.37-.07,2.06s-.12,1.25-.18,1.88c0,.43-.07.86-.13,1.29s-.15,1.1-.23,1.64c0,.35-.08.71-.15,1.06-.15.74-.31,1.49-.48,2.23s-.32,1.42-.5,2.13-.33,1.31-.55,1.94c-.37,1.06-.75,2.11-1.18,3.15S73.18,69.1,72.74,70s-.9,1.65-1.35,2.47l-.65,1.15a8.88,8.88,0,0,1-.5.75c-.31.45-.63.91-1,1.35s-.61.73-.92,1.1-.71.91-1.11,1.32a14,14,0,0,1-1.62,1.65c-.34.25-.61.58-.94.85-.71.58-1.42,1.15-2.15,1.71-.43.32-.86.65-1.32.94a20.74,20.74,0,0,1-2.53,1.39c-.49.21-1,.46-1.44.68a4.31,4.31,0,0,1-.67.21c-.7.14-1.39.29-2.09.4a5.08,5.08,0,0,1-2.05-.14c-.27-.06-.53-.14-.8-.21a2.48,2.48,0,0,1-1.52-1.3,1.53,1.53,0,0,1-.11-.48A2.34,2.34,0,0,1,50.44,82a1.67,1.67,0,0,1,1.73-.59,1.64,1.64,0,0,1,.81.35,1.89,1.89,0,0,1,.63,1.14,2.39,2.39,0,0,1,0,.6c0,.48-.29.69-.74.81A.8.8,0,0,1,52,83.9a1,1,0,0,1,.06-1,.34.34,0,0,1,.45-.08.32.32,0,0,1,.15.42,1.46,1.46,0,0,1,0,.2" transform="translate(-19.73 -8.52)"/><path class="cls-5" d="M44.67,46.52c.08-.13.16-.22.21-.32a2.53,2.53,0,0,1,.78-1,1,1,0,0,1,1-.21c.36.15.42.49.1.72a4,4,0,0,0-1,1.27.69.69,0,0,0-.1.25,7.75,7.75,0,0,0-.28,1.86c0,1,0,2,0,3a4.49,4.49,0,0,0,.06.73.45.45,0,0,0,.46.4c.44,0,.88,0,1.35,0a1.8,1.8,0,0,0,.06-.32c0-1,0-2.06,0-3.1,0-.6,0-1.21,0-1.82a3.87,3.87,0,0,0-.17-.67,1,1,0,0,1-.06-.32c0-.2.08-.28.28-.3a3.43,3.43,0,0,1,.56-.05h1.84a1.6,1.6,0,0,1,1,.4,5.88,5.88,0,0,1,.68.73.75.75,0,0,1,.16.29,3,3,0,0,1-.08,2.26,2.93,2.93,0,0,1-1,1.05c0,.15.06.26.17.35a3,3,0,0,1,.93,1.32.26.26,0,0,0,.27.19c.34,0,.67,0,1,0s.27,0,.28-.28,0-.33,0-.5V49.88c0-.5,0-1,0-1.5A2.91,2.91,0,0,0,53,47.19a2.73,2.73,0,0,0-.55-.93c-.13-.13-.23-.26-.45-.2a.51.51,0,0,1-.57-.19c-.15-.22,0-.43.08-.63A.48.48,0,0,1,52,45a2.33,2.33,0,0,1,.75.27,4.09,4.09,0,0,1,1.17,1.06l.13.11.24-.15a1.3,1.3,0,0,1,.77-.17c.26,0,.34.21.18.43a.65.65,0,0,1-.22.18.9.9,0,0,0-.5.9c0,1.07,0,2.14,0,3.2,0,1.23,0,2.46,0,3.69s0,2.29,0,3.43a3.83,3.83,0,0,0,.33,1.41,2.16,2.16,0,0,0,1.23,1.18,2.28,2.28,0,0,0,.45.11,3.76,3.76,0,0,1,.48.13.41.41,0,0,1,.24.43.42.42,0,0,1-.36.37,2.66,2.66,0,0,1-1.9-.21,3.4,3.4,0,0,1-1.14-1.18,3.58,3.58,0,0,1-.33.27l-1.08.7a.35.35,0,0,1-.43,0,.36.36,0,0,1,0-.58,5.84,5.84,0,0,0,.68-.81,2.56,2.56,0,0,0,.5-1.52c0-.92,0-1.84,0-2.76,0-.39,0-.77,0-1.16s0-.31-.35-.31H52.1a.32.32,0,0,0-.09.34,5.51,5.51,0,0,1-.19,2.76,3.92,3.92,0,0,1-.63,1.22,5.73,5.73,0,0,1-1.1,1.1,2.64,2.64,0,0,1-1.05.45,3.08,3.08,0,0,1-1.62-.22l-.25-.11c-.33-.17-.45-.47-.21-.76a1.54,1.54,0,0,0,.34-1.13c0-1,0-2,0-3v-.2c0-.4-.09-.46-.48-.43-.22,0-.43,0-.65,0s-.24,0-.36,0a.52.52,0,0,0-.45.54c0,.73,0,1.46,0,2.19,0,.45,0,.9,0,1.35a3.69,3.69,0,0,0,.81,2.13c.08.1.16.19.23.29a.35.35,0,0,1-.39.55,1,1,0,0,1-.28-.09L45,60.57l-.19-.1-.81.76a2.38,2.38,0,0,1-1.23.6,1.22,1.22,0,0,1-.27,0c-.15,0-.31,0-.35-.24a.46.46,0,0,1,.21-.46,7.89,7.89,0,0,0,.77-.51,2.82,2.82,0,0,0,1.1-2,9.13,9.13,0,0,0,.11-1.48c0-.35,0-.7,0-1s0-.62,0-.93c0-2.24,0-4.46,0-6.7a3.2,3.2,0,0,0-.14-.81c-.08-.27-.34-.39-.55-.56,0,0,0,0,0,0-.16-.08-.37-.14-.32-.36a.54.54,0,0,1,.46-.39,1.37,1.37,0,0,1,.89.15M49.52,54h-.93c-.33,0-.37.05-.37.36,0,.59,0,1.18,0,1.76A16.48,16.48,0,0,0,48.48,58a.87.87,0,0,0,1.61.26,5.21,5.21,0,0,0,.65-1.75,7.39,7.39,0,0,0,0-2.25c0-.19-.07-.25-.28-.25h-1m-1.26-3.15c.47,0,.88,0,1.29,0a.55.55,0,0,0,.31-.16,2.12,2.12,0,0,0,.2-2.88.52.52,0,0,0-.46-.28,3.69,3.69,0,0,0-.47,0,.88.88,0,0,0-.89,1c0,.52,0,1,0,1.56,0,.26,0,.52,0,.82m0,2.39c.75.06,1.47,0,2.21,0a.56.56,0,0,0,0-.2c-.15-.31-.3-.62-.46-.92a.32.32,0,0,0-.15-.13,2.46,2.46,0,0,0-1.13-.22c-.25,0-.45.19-.45.37,0,.34,0,.68,0,1.07" transform="translate(-19.73 -8.52)"/><path class="cls-5" d="M56.34,69.67c-.07.28-.14.54-.19.79a.44.44,0,0,0,.26.59.41.41,0,0,1,.19.4.32.32,0,0,1-.32.24c-.16,0-.31,0-.46,0a4.12,4.12,0,0,0-.59-.07,2.1,2.1,0,0,1-.51-.11,3.18,3.18,0,0,0-.62,0L53,71.38c-.27,0-.39-.13-.4-.35a.3.3,0,0,1,.24-.34.62.62,0,0,0,.51-.71c0-.83,0-1.66,0-2.49,0-.1,0-.2-.05-.37a1.17,1.17,0,0,0-.2.21c-.28.68-.56,1.36-.83,2-.16.38-.19.46-.52.46-.2-.38-.42-.77-.62-1.17a4.7,4.7,0,0,0-.7-1.18,4.85,4.85,0,0,0-.07.55c0,.64,0,1.28,0,1.93a1.27,1.27,0,0,0,.1.37.36.36,0,0,0,.38.26c.23,0,.3.11.31.31s-.07.34-.31.33c-.51,0-1,0-1.53,0a1.09,1.09,0,0,1-.24-.07c-.07-.4-.07-.4.24-.57a.41.41,0,0,0,.26-.41c0-1.28,0-2.55,0-3.83a.81.81,0,0,0-.27-.65,2,2,0,0,1-.19-.22.24.24,0,0,1,.16-.42h.07l1.29.11a.29.29,0,0,1,.27.2c.3.71.62,1.41.94,2.11a2.09,2.09,0,0,0,.18.25c.16-.38.32-.72.46-1.07s.31-.83.48-1.24a.36.36,0,0,1,.21-.17,1,1,0,0,1,.39,0,8.87,8.87,0,0,1,1,0c.31,0,.36.19.16.45s-.19.24-.28.37a2.2,2.2,0,0,0-.28,1.33c0,.54.06,1.08.07,1.62,0,.35,0,.71,0,1.06a1,1,0,0,0,.26.67c.26.31.56.23.82-.12a1.56,1.56,0,0,0,.2-.56c.23-1,.46-2,.68-2.92.11-.45.2-.91.3-1.36a.21.21,0,0,1,.19-.2c.18,0,.36,0,.57,0,.06.17.13.31.17.46.44,1.37.86,2.74,1.29,4.12.09.27.17.54.25.82a.87.87,0,0,0,.42.6c.15.08.25.56.13.67a.56.56,0,0,1-.35.11.79.79,0,0,1-.28-.1,2.45,2.45,0,0,0-1.37-.33c-.15,0-.29,0-.34-.2s0-.37.18-.47c.52-.28.52-.28.36-.85,0-.17-.1-.34-.16-.51a.34.34,0,0,0-.14-.17,2.83,2.83,0,0,0-1.09,0M57,67.86a1.41,1.41,0,0,0-.36,1,1,1,0,0,0,.68,0c-.1-.34-.21-.67-.32-1" transform="translate(-19.73 -8.52)"/><path class="cls-5" d="M48.9,40.61l-.9.61-.76.47c-.13.07-.25.13-.35,0s0-.25,0-.36l.7-1c.11-.16.2-.33.33-.54a2.17,2.17,0,0,0-.36-.14l-1.34-.26c-.19,0-.4-.08-.48-.31a.44.44,0,0,1,.4-.28c.53-.09,1.06-.22,1.59-.33l.18-.07c-.11-.2-.21-.38-.32-.55-.23-.35-.46-.68-.69-1a.32.32,0,0,1,0-.4c.06-.09.28-.09.43,0,.39.25.77.52,1.16.78l.37.25A3.25,3.25,0,0,0,49,37c.09-.45.17-.91.25-1.37,0-.07,0-.17.08-.21a.53.53,0,0,1,.28-.14c.13,0,.16.1.18.2L50,37c0,.14,0,.29.22.39l.5-.33,1-.66a.45.45,0,0,1,.12-.06.29.29,0,0,1,.34,0,.28.28,0,0,1,0,.37l-.59.88-.49.76.82.18,1.2.25c.11,0,.19.06.19.19s0,.21-.18.24a3.17,3.17,0,0,1-.41.12c-.38.08-.77.13-1.14.22-.15,0-.33,0-.37.27L52,41.1a1.39,1.39,0,0,1,.18.31.31.31,0,0,1,0,.27.29.29,0,0,1-.27,0,8.65,8.65,0,0,1-.76-.47c-.25-.16-.49-.34-.75-.49s-.27,0-.31.14c-.07.36-.13.74-.2,1.11,0,.16-.08.32-.11.48s-.11.27-.29.26-.21-.13-.24-.27c-.08-.4-.15-.8-.22-1.2,0-.19-.08-.39-.13-.66m1.35-1.56a.73.73,0,0,0-.72-.73.7.7,0,0,0-.68.69.7.7,0,1,0,1.4,0" transform="translate(-19.73 -8.52)"/><path class="cls-5" d="M42.62,68.93c.08.13.16.26.25.38l.85,1.07a5.32,5.32,0,0,0,.37.46,1.07,1.07,0,0,0,.32.16.33.33,0,0,1,.23.39.27.27,0,0,1-.31.25,4.94,4.94,0,0,0-1.14.19.82.82,0,0,1-.27,0,.26.26,0,0,1-.24-.35.65.65,0,0,0-.19-.66c-.35-.46-.68-.95-1-1.42a1.11,1.11,0,0,0-.11-.16c-.14-.13-.28-.09-.31.09a3.8,3.8,0,0,0-.06.58q-.06.47-.09.93c0,.3,0,.58.33.72a.33.33,0,0,1,.19.39.29.29,0,0,1-.32.23,3.4,3.4,0,0,0-1.36.4c-.26.12-.45.1-.54-.06a.43.43,0,0,1,.19-.55,1.12,1.12,0,0,0,.49-.78c.1-.47.07-.94.13-1.42s.09-.92.13-1.38.07-.77.09-1.16a.65.65,0,0,0-.28-.63A.36.36,0,0,1,40,66a1.17,1.17,0,0,1,.45-.09h1.1l.73-.06a1.48,1.48,0,0,1,1,.16,1.2,1.2,0,0,1,.56.83,2,2,0,0,1-.12,1.26,1.12,1.12,0,0,1-.42.49c-.21.13-.43.22-.69.35m-1.53-.45a1.3,1.3,0,0,0,.83,0,1.36,1.36,0,0,0,.5-.36,1,1,0,0,0,.13-1.41.44.44,0,0,0-.43-.21c-.21,0-.41,0-.62.08s-.25.1-.27.32,0,.35,0,.52c0,.34-.06.68-.09,1" transform="translate(-19.73 -8.52)"/><path class="cls-5" d="M48.84,67.88a3.82,3.82,0,0,1-.17,1.53,3.17,3.17,0,0,1-1.27,1.77,1.69,1.69,0,0,1-2-.2,3.49,3.49,0,0,1-.91-1.7A3.09,3.09,0,0,1,44.36,68c0-.29.06-.59.11-.88a3.55,3.55,0,0,1,.67-1.43,2,2,0,0,1,1.57-.92,1.47,1.47,0,0,1,.46.07,2,2,0,0,1,1.37,1.32,3.93,3.93,0,0,1,.3,1.69M47.79,68c-.07-.49-.13-1-.23-1.49a1.49,1.49,0,0,0-.31-.58.52.52,0,0,0-.84-.06,2.52,2.52,0,0,0-.76,1.54c0,.12,0,.24-.07.35a3.76,3.76,0,0,0,0,1.25A3,3,0,0,0,46,70.39a.59.59,0,0,0,1,.08,2.93,2.93,0,0,0,.46-.83,6.61,6.61,0,0,0,.34-1.6" transform="translate(-19.73 -8.52)"/></g></g></g></svg>