<svg xmlns="http://www.w3.org/2000/svg" viewBox="0 0 80.58 67.24"><defs><style>.cls-1{fill:none;stroke:#b50000;stroke-miterlimit:10;}</style></defs><title>collab-before</title><g id="Layer_2" data-name="Layer 2"><g id="sans"><path class="cls-1" d="M39.78,22.89c3.68-.05,8.19,6.74,8.34,10.41s-3.46,11.37-7.46,11.56c-4.77.21-7.47-7.63-7.62-11.3S35.43,23,39.78,22.89Z"/><path class="cls-1" d="M52.22,31.21c.78,3.86-5.85,9.84-9.89,10.67S29.07,40.35,28.09,36.2c-1.17-5,7-9.24,11-10.07S51.3,26.68,52.22,31.21Z"/><path class="cls-1" d="M45.44,45.79c-4.11,1.53-12-4.31-13.73-8.39s-.89-14.17,3.51-16C40.48,19.29,46.8,27,48.51,31.12S50.29,44,45.44,45.79Z"/><path class="cls-1" d="M28,41.38c-2.5-4,2.43-13.39,6.6-15.93S50.1,21.89,53,26.17c3.4,5.12-4,13.17-8.12,15.72S30.93,46.12,28,41.38Z"/><path class="cls-1" d="M29.46,22.28c4-3.36,15.3.07,18.92,4s7,15.59,2.78,19.37c-5,4.5-15.34-1.71-19-5.61S24.79,26.24,29.46,22.28Z"/><path class="cls-1" d="M50.88,20.3c4.49,3.54,2.91,16-.7,20.56S34.28,51,29.29,47.34C23.34,43,28.18,31,31.79,26.43S45.6,16.13,50.88,20.3Z"/><path class="cls-1" d="M57.26,42.38c-3,5.35-17.17,6-22.89,3S20,30.66,23.12,24.75c3.7-7,17.91-4.19,23.63-1.24S60.84,36.06,57.26,42.38Z"/><path class="cls-1" d="M34.08,53.13c-6.53-2.19-10-16.88-7.85-23.41S39.77,12,46.92,14.11c8.53,2.58,8.13,18,6,24.52S41.76,55.71,34.08,53.13Z"/><path class="cls-1" d="M17.65,30.83C18.81,23.59,34.38,17.24,42,18.29s22.31,10.9,21.32,18.79c-1.19,9.41-18.33,11.84-26,10.8S16.29,39.35,17.65,30.83Z"/><path class="cls-1" d="M39.12,9.5c8.24-.12,18.31,15,18.64,23.22S50.05,58.1,41.12,58.52c-10.64.49-16.68-17-17-25.21S29.43,9.65,39.12,9.5Z"/><path class="cls-1" d="M66.91,28.06c1.75,8.6-13,22-22,23.81s-29.6-3.39-31.8-12.66C10.44,28.15,28.63,18.59,37.64,16.73S64.85,17.93,66.91,28.06Z"/><path class="cls-1" d="M51.8,60.6C42.62,64,25,51,21.15,41.89S19.13,10.26,29,6.25c11.72-4.79,25.85,12.5,29.67,21.59S62.61,56.57,51.8,60.6Z"/><path class="cls-1" d="M12.85,50.78c-5.58-9,5.39-29.89,14.71-35.57s34.61-8,41,1.59c7.59,11.41-8.79,29.4-18.1,35.08S19.41,61.36,12.85,50.78Z"/><path class="cls-1" d="M16.11,8.15C25,.65,50.24,8.29,58.34,17S73.9,51.79,64.57,60.22c-11.14,10-34.24-3.78-42.35-12.49S5.69,17,16.11,8.15Z"/><path class="cls-1" d="M63.91,3.7c10,7.89,6.51,35.77-1.54,45.88S26.91,72.31,15.76,64.09c-13.3-9.81-2.5-36.57,5.56-46.68S52.11-5.59,63.91,3.7Z"/><path class="cls-1" d="M78.17,53c-6.77,12-38.32,13.43-51.07,6.85S-5,26.86,2,13.66c8.25-15.74,40-9.37,52.72-2.8S86.15,38.87,78.17,53Z"/></g></g></svg>