<?xml version="1.0" encoding="utf-8"?>
<!-- Generator: Adobe Illustrator 22.1.0, SVG Export Plug-In . SVG Version: 6.00 Build 0)  -->
<svg version="1.1" id="Layer_1" xmlns="http://www.w3.org/2000/svg" xmlns:xlink="http://www.w3.org/1999/xlink" x="0px" y="0px"
	 viewBox="0 0 286.5 80.4" style="enable-background:new 0 0 286.5 80.4;" xml:space="preserve">
<title>bibliotheca-hertziana</title>
<g id="Layer_2_2_">
	<g id="sans_1_">
		<path d="M110.4,35.4h-8.8l3.1-15.2H30.4l-7.9,39.3h29.6l2-10.1H36.7l1-5.1h17.5l1.8-8.9H39.5l1-5.1h27.8l-5.8,29.2h12l5.8-29.2
			h10.1l-5.8,29.2h12.2l3-15.2h8.8l-3,15.2h12.1l7.9-39.3h-12.1L110.4,35.4z M162.3,25.2h4l1-5.1h-4L162.3,25.2z M172.6,25.2h4
			l1-5.1h-4L172.6,25.2z M210.5,25.2h4.1l1-5.1h-4L210.5,25.2z M230.7,32.7c-7.1,0-12,5-13.6,13.7c-0.3,1.4-0.4,2.7-0.4,4.1
			c0,6,3.6,9.7,9.4,9.7c3.3,0,6.6-1.3,8.9-3.8l0,0l-2.2-2.8l0,0l0,0c-1.6,1.9-3.9,3.1-6.4,3.1c-2.8,0-5.7-1.7-5.7-6.3
			c0-1.3,0.1-2.7,0.4-4c0.4-2.8,1.6-5.5,3.4-7.7c1.5-1.6,3.6-2.6,5.8-2.6c2.2-0.1,4.2,1.1,5.2,3v0l2.9-2.4l0,0v0
			C236.7,34.1,233.8,32.6,230.7,32.7z M256.5,32.2c-2.9-0.1-5.6,1-7.6,3l3-15H248l-7.8,39.3h3.9l3.3-16.5c1.4-7,6.8-7.3,7.9-7.3
			c2.4-0.2,4.5,1.5,4.8,3.9c0,0.3,0,0.5,0,0.8c0,0.8-0.1,1.7-0.3,2.5l-3.3,16.6h3.9l3.4-17c0.2-0.9,0.3-1.8,0.3-2.7
			c0.3-3.9-2.7-7.3-6.6-7.6C257,32.2,256.8,32.2,256.5,32.2z M203.8,59.4L203.8,59.4l3.9,0.1l5.3-26.6h-3.8L203.8,59.4z M133.1,36.6
			L133.1,36.6l13.1,0.1l-17.3,19.6l0,0l-0.7,3.2h18.6l0.7-3.8h-13.9L151,36.1l0,0l0.6-3.2h-17.8L133.1,36.6z M197.4,32.5
			c-2.8-0.1-5.5,1.2-7.3,3.4l0.6-3v-0.1h-3.8l-5.3,26.6v0.1h3.9l3.2-16.3c0.8-4.2,4-7.2,7.6-7.2c1.5,0,2.9,0.7,3.7,1.9v0l3.1-2.8
			l0,0C201.7,33.4,199.6,32.4,197.4,32.5z M174.1,32.9h3.9v0.1l-5.3,26.6h-3.8v-0.1l0.5-2.8c-2,2.1-4.8,3.3-7.7,3.2
			c-3.9,0.2-7.1-2.8-7.3-6.6c0,0,0,0,0-0.1c0-0.3,0-0.5,0-0.8c0-0.8,0.1-1.6,0.3-2.4v-0.2l3.3-16.8h3.9v0.1l-3.2,16.4
			c-0.2,0.8-0.2,1.6-0.3,2.5c-0.2,2.4,1.6,4.5,4,4.6c0,0,0,0,0,0c0.3,0,0.5,0,0.8,0c1.1,0,6.3-0.3,7.7-7.2L174.1,32.9z"/>
	</g>
</g>
</svg>
