<svg xmlns="http://www.w3.org/2000/svg" viewBox="0 0 608.43 251.73"><defs><style>.cls-1,.cls-10,.cls-11,.cls-12,.cls-13,.cls-14,.cls-15,.cls-16,.cls-17,.cls-18,.cls-19,.cls-2,.cls-20,.cls-21,.cls-3,.cls-4,.cls-5,.cls-6,.cls-7,.cls-8,.cls-9{fill:none;stroke:#b50000;stroke-miterlimit:10;}.cls-1{stroke-width:1.14px;}.cls-2{stroke-width:1.19px;}.cls-3{stroke-width:1.25px;}.cls-4{stroke-width:1.3px;}.cls-5{stroke-width:1.36px;}.cls-6{stroke-width:1.42px;}.cls-7{stroke-width:1.48px;}.cls-8{stroke-width:1.54px;}.cls-9{stroke-width:1.61px;}.cls-10{stroke-width:1.68px;}.cls-11{stroke-width:1.76px;}.cls-12{stroke-width:1.84px;}.cls-13{stroke-width:1.92px;}.cls-14{stroke-width:2px;}.cls-15{stroke-width:2.09px;}.cls-16{stroke-width:2.18px;}.cls-17{stroke-width:2.28px;}.cls-18{stroke-width:2.38px;}.cls-19{stroke-width:2.48px;}.cls-20{stroke-width:2.59px;}.cls-21{stroke-width:2.7px;}.cls-22{font-size:52px;font-family:Montserrat-Bold, Montserrat;}.cls-23{font-weight:700;}.cls-24,.cls-25,.cls-26,.cls-27{font-family:Montserrat-Light, Montserrat;}.cls-24{letter-spacing:0em;}.cls-25{letter-spacing:-0.01em;}.cls-26{letter-spacing:0em;}</style></defs><title>hero-image</title><g id="Layer_2" data-name="Layer 2"><g id="sans"><g id="big_logo" data-name="big logo"><path class="cls-1" d="M116.72,88.85c21.5,12.13,30.57,36.32,20.27,54S100.92,165.1,79.43,153,48.86,116.66,59.16,99,95.23,76.73,116.72,88.85Z"/><path class="cls-2" d="M84.23,84.94c24.12-9.4,49.86-.93,57.51,18.94s-5.71,43.59-29.83,53-49.86.93-57.5-18.93S60.12,94.35,84.23,84.94Z"/><path class="cls-3" d="M59.56,108.58C67.83,83,91.77,67.78,113,74.59s31.82,33.07,23.55,58.65-32.21,40.81-53.49,34S51.29,134.17,59.56,108.58Z"/><path class="cls-4" d="M62.54,143.91c-15.42-23.37-12-52.62,7.61-65.32s48-4,63.46,19.33,12,52.61-7.62,65.31S78,167.28,62.54,143.91Z"/><path class="cls-5" d="M93.35,164.58c-29.28-2.83-50.9-24.68-48.29-48.8S73.52,74.41,102.8,77.25s50.89,24.67,48.28,48.79S122.63,167.41,93.35,164.58Z"/><path class="cls-6" d="M130.6,153.24C108.92,175,76.79,178.15,58.83,160.3s-14.95-50,6.72-71.71,53.8-24.92,71.77-7.07S152.27,131.48,130.6,153.24Z"/><path class="cls-7" d="M146,115.8c3.43,31.68-15.24,59.65-41.69,62.47S53.6,157.7,50.18,126,65.42,66.38,91.87,63.55,142.54,84.12,146,115.8Z"/><path class="cls-8" d="M125.57,79C153.7,96.89,164.19,130.2,149,153.37s-50.3,27.42-78.43,9.49S32,111.63,47.14,88.46,97.45,61,125.57,79Z"/><path class="cls-9" d="M82,71.35c33.24-11,67.37,2.32,76.24,29.7s-10.88,58.46-44.12,69.43-67.36-2.33-76.23-29.7S48.78,82.32,82,71.35Z"/><path class="cls-10" d="M47,101.49c13-33.95,46.44-52.78,74.66-42.06s40.53,46.95,27.51,80.9S102.71,193.12,74.5,182.4,34,135.45,47,101.49Z"/><path class="cls-11" d="M48.44,149.41c-19.11-32.67-12.38-71.91,15-87.65s65.13-2,84.24,30.65,12.38,71.92-15,87.66S67.55,182.08,48.44,149.41Z"/><path class="cls-12" d="M88.52,179.54c-39.31-5.93-66.9-37-61.62-69.36s41.42-53.83,80.73-47.9,66.9,37,61.62,69.37S127.83,185.47,88.52,179.54Z"/><path class="cls-13" d="M139.62,166.9c-30.84,27.82-74.43,29.78-97.38,4.38S25.69,102.74,56.53,74.92,131,45.14,153.9,70.54,170.45,139.08,139.62,166.9Z"/><path class="cls-14" d="M163.09,117.45c2.32,43-24.91,79.45-60.82,81.37S35.38,167.4,33.06,124.37,58,44.92,93.87,43,160.77,74.43,163.09,117.45Z"/><path class="cls-15" d="M138.24,66.24c36.66,26.22,48.39,72,26.21,102.16S94.56,201.81,57.9,175.59s-48.39-72-26.2-102.16S101.59,40,138.24,66.24Z"/><path class="cls-16" d="M80,52.82c45.65-12.42,90.75,8,100.73,45.59S161.8,176.57,116.14,189s-90.75-8-100.73-45.59S34.35,65.25,80,52.82Z"/><path class="cls-17" d="M30.54,91c20-44.92,66.53-67.95,103.83-51.44s51.28,66.31,31.24,111.23S99.08,218.76,61.78,202.25,10.49,135.94,30.54,91Z"/><path class="cls-18" d="M29,155.83c-23.42-45.49-11.48-98,26.67-117.29s88,2,111.46,47.45,11.48,98-26.67,117.29S52.42,201.33,29,155.83Z"/><path class="cls-19" d="M80.91,199.4c-52.62-10.83-87.6-54.75-78.12-98.1S62.61,31.59,115.24,42.43s87.6,54.75,78.12,98.09S133.53,210.23,80.91,199.4Z"/><path class="cls-20" d="M150.8,186c-43.64,35.35-102.63,34.87-131.75-1.08S1.71,91.17,45.35,55.82,148,21,177.09,56.9,194.44,150.65,150.8,186Z"/><path class="cls-21" d="M186.08,120.91c0,58.27-39.4,105.51-88,105.51s-88-47.24-88-105.51,39.4-105.5,88-105.5S186.08,62.65,186.08,120.91Z"/><text class="cls-22" transform="translate(214.43 44.23)"><tspan class="cls-23">C</tspan><tspan class="cls-24" x="35.98" y="0">onsortium </tspan><tspan class="cls-25" x="312.26" y="0">f</tspan><tspan class="cls-24" x="328.64" y="0">or </tspan><tspan class="cls-23" x="0" y="46">O</tspan><tspan class="cls-24" x="41.81" y="46">pen</tspan><tspan class="cls-23" x="0" y="92">R</tspan><tspan class="cls-26" x="37.65" y="92">esearch </tspan><tspan class="cls-23" x="0" y="138">D</tspan><tspan class="cls-27" x="39.83" y="138">ata in the </tspan><tspan class="cls-23" x="0" y="184">H</tspan><tspan class="cls-27" x="40.82" y="184">umanities</tspan></text></g></g></g></svg>