<svg xmlns="http://www.w3.org/2000/svg" viewBox="0 0 261.81 80.83"><defs><style>.cls-1{font-size:49.39px;font-family:Montserrat-Bold, Montserrat;font-weight:700;letter-spacing:-0.01em;}.cls-2{letter-spacing:0em;}.cls-3{font-size:34.96px;letter-spacing:0em;}.cls-10,.cls-11,.cls-12,.cls-13,.cls-14,.cls-15,.cls-16,.cls-17,.cls-18,.cls-19,.cls-20,.cls-21,.cls-22,.cls-23,.cls-24,.cls-4,.cls-5,.cls-6,.cls-7,.cls-8,.cls-9{fill:none;stroke:#b50000;stroke-miterlimit:10;}.cls-4{stroke-width:0.28px;}.cls-5{stroke-width:0.3px;}.cls-6{stroke-width:0.31px;}.cls-7{stroke-width:0.34px;}.cls-8{stroke-width:0.36px;}.cls-9{stroke-width:0.38px;}.cls-10{stroke-width:0.41px;}.cls-11{stroke-width:0.43px;}.cls-12{stroke-width:0.46px;}.cls-13{stroke-width:0.49px;}.cls-14{stroke-width:0.53px;}.cls-15{stroke-width:0.56px;}.cls-16{stroke-width:0.6px;}.cls-17{stroke-width:0.64px;}.cls-18{stroke-width:0.68px;}.cls-19{stroke-width:0.73px;}.cls-20{stroke-width:0.77px;}.cls-21{stroke-width:0.82px;}.cls-22{stroke-width:0.88px;}.cls-23{stroke-width:0.94px;}</style></defs><title>Asset 1</title><g id="Layer_2" data-name="Layer 2"><g id="sans"><g id="logo"><text class="cls-1" transform="translate(87.5 57.39)">C<tspan class="cls-2" x="33.58" y="0">ORD</tspan><tspan class="cls-3" x="146.87" y="-15.38">H</tspan></text><path class="cls-4" d="M39.87,32.83c5.26,3,7.48,9,5,13.35S36,51.65,30.75,48.65s-7.48-9-5-13.34S34.61,29.83,39.87,32.83Z" transform="translate(0)"/><path class="cls-5" d="M31.81,31.68c6-2.34,12.48-.18,14.42,4.83s-1.39,11-7.42,13.3S26.33,50,24.4,45,25.78,34,31.81,31.68Z" transform="translate(0)"/><path class="cls-6" d="M25.43,37.57c2.11-6.55,8.25-10.44,13.71-8.69s8.17,8.49,6.06,15S37,54.36,31.49,52.61,23.32,44.12,25.43,37.57Z" transform="translate(0)"/><path class="cls-7" d="M26,46.79C22,40.65,22.91,33,28,29.64S40.58,28.56,44.6,34.7s3.12,13.81-2,17.15S30.05,52.92,26,46.79Z" transform="translate(0)"/><path class="cls-8" d="M34.09,52.47c-7.8-.79-13.57-6.67-12.9-13.15S28.74,28.23,36.54,29s13.57,6.67,12.89,13.15S41.88,53.26,34.09,52.47Z" transform="translate(0)"/><path class="cls-9" d="M44.22,49.61c-5.89,5.92-14.66,6.75-19.58,1.85S20.5,37.8,26.4,31.88,41.07,25.12,46,30,50.12,43.69,44.22,49.61Z" transform="translate(0)"/><path class="cls-10" d="M48.67,39.31C49.62,48.16,44.41,56,37,56.75S22.9,51,22,42.17s4.26-16.65,11.64-17.44S47.72,30.47,48.67,39.31Z" transform="translate(0)"/><path class="cls-11" d="M43.11,28.74c8,5.14,11,14.67,6.65,21.3s-14.27,7.84-22.25,2.71-11-14.68-6.65-21.31S35.13,23.6,43.11,28.74Z" transform="translate(0)"/><path class="cls-12" d="M30.59,26.26C40.22,23.1,50.15,27,52.75,35S49.67,52.07,40,55.23s-19.55-.77-22.16-8.77S21,29.42,30.59,26.26Z" transform="translate(0)"/><path class="cls-13" d="M20.11,34.94C24,24.86,33.9,19.29,42.3,22.49s12.07,14,8.22,24.05S36.73,62.2,28.33,59,16.25,45,20.11,34.94Z" transform="translate(0)"/><path class="cls-14" d="M20.27,49.43c-5.78-9.94-3.73-21.89,4.58-26.69s19.73-.63,25.51,9.31,3.72,21.89-4.59,26.69S26.05,59.37,20.27,49.43Z" transform="translate(0)"/><path class="cls-15" d="M32.41,59C20.27,57.12,11.73,47.42,13.33,37.34S26.08,20.6,38.22,22.49,58.9,34.07,57.29,44.15,44.55,60.88,32.41,59Z" transform="translate(0)"/><path class="cls-16" d="M48.52,55.37C38.79,64.15,25,64.72,17.7,56.64s-5.32-21.75,4.4-30.53,23.53-9.34,30.83-1.26S58.25,46.59,48.52,55.37Z" transform="translate(0)"/><path class="cls-17" d="M56.34,39.62C57.09,53.54,48.28,65.33,36.66,66S15,55.79,14.28,41.87,22.35,16.15,34,15.53,55.6,25.7,56.34,39.62Z" transform="translate(0)"/><path class="cls-18" d="M48.53,22.6c12.06,8.71,15.92,23.89,8.62,33.91s-23,11.08-35,2.38S6.17,35,13.47,25,36.46,13.89,48.53,22.6Z" transform="translate(0)"/><path class="cls-19" d="M29.14,17.67c15.34-4.15,30.55,2.83,34,15.57S56.83,59.68,41.49,63.82,10.94,61,7.53,48.24,13.79,21.81,29.14,17.67Z" transform="translate(0)"/><path class="cls-20" d="M12,30.39C18.88,14.93,34.9,7,47.77,12.75S65.51,35.63,58.63,51.09,35.73,74.46,22.85,68.74,5.11,45.86,12,30.39Z" transform="translate(0)"/><path class="cls-21" d="M11,53.09C2.82,37,7,18.51,20.45,11.69s30.93.66,39.14,16.71,4,34.58-9.41,41.4S19.24,69.14,11,53.09Z" transform="translate(0)"/><path class="cls-22" d="M29.23,69.09c-18.84-4-31.4-19.86-28-35.52S22.54,8.44,41.39,12.4s31.4,19.86,28.05,35.51S48.08,73.05,29.23,69.09Z" transform="translate(0)"/><path class="cls-23" d="M54.76,64.75c-16,12.93-37.61,12.67-48.35-.59S-.1,29.67,15.86,16.73s37.62-12.66,48.36.6S70.73,51.82,54.76,64.75Z" transform="translate(0)"/><path class="cls-24" d="M68.33,40.74c0,21.87-14.78,39.59-33,39.59s-33-17.72-33-39.59,14.79-39.58,33-39.58S68.33,18.88,68.33,40.74Z" transform="translate(0)"/></g></g></g></svg>