<svg xmlns="http://www.w3.org/2000/svg" viewBox="0 0 84.59 83.31"><defs><style>.cls-1{fill:none;stroke:#b50000;stroke-miterlimit:10;}</style></defs><title>news-before</title><g id="Layer_2" data-name="Layer 2"><g id="sans"><path class="cls-1" d="M45.65,38.71C50.13,44.25,50.09,52,45.57,56s-11.81,2.78-16.29-2.76S24.83,40,29.36,35.94,41.17,33.16,45.65,38.71Z"/><path class="cls-1" d="M45.74,38.3c-6.74,2.49-14-.4-16.24-6.44s1.43-13,8.17-15.45,14,.4,16.24,6.44S52.48,35.81,45.74,38.3Z"/><path class="cls-1" d="M46.09,38.54c0-7.72,5.17-14,11.61-14s11.69,6.21,11.72,13.94-5.16,14-11.61,14S46.12,46.27,46.09,38.54Z"/><path class="cls-1" d="M45.74,38.81C53,41.62,57.14,49.18,55,55.7s-9.83,9.53-17.1,6.72-11.4-10.37-9.22-16.89S38.47,36,45.74,38.81Z"/><path class="cls-1" d="M45.61,38.36c-5.12,6.31-13.64,7.7-19,3.1S21,28,26.12,21.71s13.65-7.7,19-3.1S50.74,32.05,45.61,38.36Z"/><path class="cls-1" d="M46.08,38.39C41.9,30.89,43.51,21.77,49.67,18s14.54-.71,18.72,6.79S71,41.44,64.8,45.19,50.26,45.89,46.08,38.39Z"/><path class="cls-1" d="M45.89,38.85C54.37,37.39,62.38,42.36,63.8,50S59.49,64.92,51,66.38,34.52,62.87,33.1,55.27,37.41,40.31,45.89,38.85Z"/><path class="cls-1" d="M45.52,38.49C44,47.59,36.58,53.86,29,52.5s-12.58-9.86-11-19,8.94-15.38,16.57-14S47.05,29.38,45.52,38.49Z"/><path class="cls-1" d="M46,38.25c-8-4.89-11.39-14.69-7.5-21.89s13.56-9.09,21.6-4.2,11.39,14.69,7.49,21.89S54,43.14,46,38.25Z"/><path class="cls-1" d="M46.05,38.81c7.34-6.32,17.7-6.11,23.14.48s3.9,17-3.44,23.36-17.7,6.11-23.14-.48S38.71,45.13,46.05,38.81Z"/><path class="cls-1" d="M45.51,38.67c3.42,9.74-.32,20.13-8.37,23.2S19.79,59.54,16.37,49.8s.31-20.13,8.36-23.2S42.08,28.93,45.51,38.67Z"/><path class="cls-1" d="M45.83,38.17c-10.33-.12-18.81-7.72-18.95-17S35,4.51,45.33,4.63s18.81,7.72,18.94,17S56.15,38.29,45.83,38.17Z"/><path class="cls-1" d="M46.18,38.67c3.65-10.39,13.69-16.16,22.44-12.89s12.89,14.34,9.25,24.73S64.18,66.67,55.43,63.4,42.54,49.06,46.18,38.67Z"/><path class="cls-1" d="M45.59,38.85c8.51,7.5,10.5,19.78,4.44,27.42s-17.88,7.75-26.4.25S13.12,46.74,19.19,39.1,37.07,31.35,45.59,38.85Z"/><path class="cls-1" d="M45.62,38.18c-10,5.85-22.17,3.35-27.28-5.59s-1.17-20.92,8.8-26.77,22.17-3.34,27.28,5.6S55.59,32.33,45.62,38.18Z"/><path class="cls-1" d="M46.24,38.47C44.15,26.25,50.68,14.83,60.83,13s20,6.51,22.14,18.73S78.53,55.33,68.39,57.2,48.33,50.68,46.24,38.47Z"/><path class="cls-1" d="M45.76,39c12.2,2.39,20.7,13.19,19,24.13S51.76,81,39.57,78.59s-20.69-13.18-19-24.12S33.57,36.6,45.76,39Z"/><path class="cls-1" d="M45.44,38.31C39,49.76,26,54.37,16.28,48.62S3.93,28.93,10.34,17.49,29.8,1.43,39.5,7.18,51.85,26.87,45.44,38.31Z"/><path class="cls-1" d="M46.18,38.23C37.62,27.55,37.75,12.66,46.47,5S69.19-.26,77.75,10.42,86.19,36,77.47,43.68,54.74,48.92,46.18,38.23Z"/><path class="cls-1" d="M46,39c13-4.72,26.92.89,31.15,12.52S74.31,76.42,61.34,81.14s-26.92-.88-31.16-12.52S33,43.73,46,39Z"/><ellipse class="cls-1" cx="22.92" cy="38.54" rx="22.42" ry="26.87"/></g></g></svg>