<svg xmlns="http://www.w3.org/2000/svg" viewBox="0 0 75.92 74"><defs><style>.cls-1{fill:none;stroke:#b50000;stroke-miterlimit:10;}</style></defs><title>title-before</title><g id="Layer_2" data-name="Layer 2"><g id="sans"><path class="cls-1" d="M33.69,36.06c2.44,1.33,3.55,4.08,2.46,6.14s-3.93,2.66-6.38,1.33-3.55-4.08-2.46-6.14S31.24,34.73,33.69,36.06Z"/><path class="cls-1" d="M34.77,39.26c.47,3.07-1.18,5.91-3.67,6.35s-4.89-1.69-5.36-4.76,1.18-5.92,3.68-6.35S34.31,36.19,34.77,39.26Z"/><path class="cls-1" d="M32.73,42.39c-2.34,2.49-5.89,3-7.91,1s-1.77-5.49.57-8,5.89-3,7.92-1.05S35.07,39.89,32.73,42.39Z"/><path class="cls-1" d="M28.68,42.7c-3.71-.39-6.45-3.21-6.14-6.31s3.57-5.29,7.28-4.9S36.27,34.7,36,37.8,32.38,43.09,28.68,42.7Z"/><path class="cls-1" d="M25.73,39.32c-2.11-3.55-1.48-7.9,1.4-9.72s6.93-.42,9,3.12,1.48,7.9-1.4,9.72S27.84,42.86,25.73,39.32Z"/><path class="cls-1" d="M26.71,34.41c1.67-4.28,5.84-6.68,9.31-5.35S41,34.92,39.29,39.19,33.45,45.87,30,44.55,25,38.69,26.71,34.41Z"/><path class="cls-1" d="M31.59,32c4.8-1.42,9.62.65,10.78,4.63s-1.8,8.35-6.6,9.77S26.15,45.7,25,41.72,26.8,33.37,31.59,32Z"/><path class="cls-1" d="M36.94,34.61c4.4,3.29,5.79,9,3.12,12.7s-8.41,4.07-12.8.78-5.79-9-3.12-12.7S32.55,31.32,36.94,34.61Z"/><path class="cls-1" d="M38.18,41.16c.06,6.13-3.93,11.23-8.91,11.38s-9.07-4.7-9.13-10.83,3.93-11.22,8.92-11.37S38.12,35,38.18,41.16Z"/><path class="cls-1" d="M33.33,46.7c-5.25,4.21-12.29,4.13-15.71-.19S15.69,35.29,21,31.08s12.29-4.13,15.71.19S38.59,42.49,33.33,46.7Z"/><path class="cls-1" d="M25.35,46.16c-7.11-1.81-11.68-8.1-10.21-14.06s8.42-9.33,15.53-7.52,11.68,8.1,10.21,14.06S32.46,48,25.35,46.16Z"/><path class="cls-1" d="M20.55,38.71c-3.14-7.53-.72-15.85,5.4-18.59s13.61,1.14,16.75,8.67.71,15.86-5.41,18.6S23.68,46.24,20.55,38.71Z"/><path class="cls-1" d="M23.81,29.4C28.24,21.51,37,18,43.43,21.58s8,12.85,3.57,20.74S33.78,53.71,27.37,50.14,19.37,37.28,23.81,29.4Z"/><path class="cls-1" d="M34,26c9.74-1.41,18.57,4,19.72,12.11S47.9,53.9,38.16,55.31s-18.57-4-19.71-12.11S24.26,27.39,34,26Z"/><path class="cls-1" d="M43.69,32.7c7.66,7.68,8.81,19.18,2.57,25.7S28.76,64,21.1,56.28s-8.8-19.18-2.56-25.7S36,25,43.69,32.7Z"/><path class="cls-1" d="M44.29,45.85c-1.58,12-10.76,20.82-20.51,19.7S7.42,53.81,9,41.81,19.76,21,29.5,22.11,45.87,33.86,44.29,45.85Z"/><path class="cls-1" d="M33.32,55.3C21.91,62,8.23,59.88,2.76,50.47S2.1,28,13.5,21.26s25.09-4.58,30.56,4.82S44.72,48.57,33.32,55.3Z"/><path class="cls-1" d="M17.91,52C4.56,46.43-2.61,32.83,1.9,21.6s19-15.83,32.33-10.28,20.52,19.14,16,30.37S31.26,57.53,17.91,52Z"/><path class="cls-1" d="M10.61,36.06c-4-15.6,3-31.19,15.66-34.8S52.49,7.36,56.51,23s-3,31.19-15.67,34.8S14.63,51.66,10.61,36.06Z"/><path class="cls-1" d="M19.53,18.79C30.35,4.64,48.44.29,59.94,9.08s12,27.38,1.22,41.54-28.91,18.49-40.4,9.71S8.71,32.94,19.53,18.79Z"/><path class="cls-1" d="M40.35,15c19.37,0,35.07,13.1,35.07,29.25S59.72,73.5,40.35,73.5,5.28,60.4,5.28,44.24,21,15,40.35,15Z"/></g></g></svg>